<?xml version="1.0" standalone="no"?>
<!DOCTYPE svg PUBLIC "-//W3C//DTD SVG 20010904//EN"
"http://www.w3.org/TR/2001/REC-SVG-20010904/DTD/svg10.dtd"
[
 <!ATTLIST svg
  xmlns:xlink CDATA #FIXED "http://www.w3.org/1999/xlink">
]>
<!-- Created with Sodipodi ("http://www.sodipodi.com/") -->
<svg
   width="128pt"
   height="128pt"
   id="svg1"
   sodipodi:version="0.27"
   sodipodi:docname="/mnt/windows/Themes/Work/Blue-Sphere/editdelete-small.svg"
   sodipodi:docbase="/mnt/windows/Themes/Work/Blue-Sphere/"
   xmlns="http://www.w3.org/2000/svg"
   xmlns:sodipodi="http://sodipodi.sourceforge.net/DTD/sodipodi-0.dtd"
   xmlns:xlink="http://www.w3.org/1999/xlink">
  <defs
     id="defs22">
    <linearGradient
       id="linearGradient601">
      <stop
         offset="0.000000"
         style="stop-color:#ffffff;stop-opacity:1;"
         id="stop603" />
      <stop
         offset="1.000000"
         style="stop-color:#000000;stop-opacity:1;"
         id="stop602" />
    </linearGradient>
    <linearGradient
       id="linearGradient168">
      <stop
         offset="0.000000"
         style="stop-color:#cdffff;stop-opacity:1;"
         id="stop169" />
      <stop
         offset="1.000000"
         style="stop-color:#0c5d7d;stop-opacity:0.905882;"
         id="stop170" />
    </linearGradient>
    <linearGradient
       id="linearGradient90">
      <stop
         offset="0.000000"
         style="stop-color:#cdffff;stop-opacity:1;"
         id="stop91" />
      <stop
         offset="1.000000"
         style="stop-color:#006b97;stop-opacity:0.905882;"
         id="stop92" />
    </linearGradient>
    <linearGradient
       id="linearGradient67">
      <stop
         offset="0.000000"
         style="stop-color:#d7ffff;stop-opacity:0.898039;"
         id="stop70" />
      <stop
         offset="1.000000"
         style="stop-color:#2ea6b9;stop-opacity:0.952941;"
         id="stop69" />
    </linearGradient>
    <linearGradient
       id="linearGradient57">
      <stop
         offset="0.000000"
         style="stop-color:#ffffff;stop-opacity:1;"
         id="stop59" />
      <stop
         offset="1.000000"
         style="stop-color:#797979;stop-opacity:1;"
         id="stop58" />
    </linearGradient>
    <defs
       id="defs4">
      <radialGradient
         id="1"
         cx="869.603027"
         cy="1973.579956"
         r="2106.649902"
         fx="869.603027"
         fy="1973.579956"
         gradientUnits="userSpaceOnUse"
         xlink:href="#linearGradient67" />
    </defs>
    <defs
       id="defs11">
      <linearGradient
         id="2"
         x1="255.848007"
         y1="119.147003"
         x2="375.686005"
         y2="34.100899"
         gradientUnits="userSpaceOnUse"
         xlink:href="#linearGradient601" />
    </defs>
    <defs
       id="defs16">
      <linearGradient
         id="3"
         x1="275.053009"
         y1="109.384003"
         x2="356.480988"
         y2="30.864300"
         gradientUnits="userSpaceOnUse"
         xlink:href="#linearGradient57" />
    </defs>
    <radialGradient
       cx="3.03981e-14"
       cy="1.05578e-10"
       r="0.773346"
       fx="3.03981e-14"
       fy="1.05578e-10"
       xlink:href="#linearGradient168"
       id="radialGradient88"
       gradientUnits="objectBoundingBox"
       gradientTransform="matrix(0.945877,0,0,1.05722,0.264368,0.249996)"
       spreadMethod="pad" />
    <linearGradient
       x1="2.69643"
       y1="1.14655"
       x2="3.85147"
       y2="0.623116"
       xlink:href="#linearGradient67"
       id="linearGradient89"
       gradientUnits="objectBoundingBox"
       gradientTransform="translate(-2.65767,-0.201241)"
       spreadMethod="pad" />
  </defs>
  <sodipodi:namedview
     id="base" />
  <g
     id="g515"
     transform="matrix(1.29782,0,0,1.29782,-48.5116,-49.8005)">
    <path
       style="font-size:12;fill:#bceff1;fill-opacity:0.992157;stroke:#1c5574;stroke-width:14.6092;stroke-opacity:0.992157;"
       d="M 23.9471 20.1241L 265.767 20.1241L 365.767 120.124L 365.767 535.103L 23.9471 535.103L 23.9471 20.1241z"
       id="path474"
       transform="matrix(0.213907,0,0,0.213907,61.1646,40.8892)" />
    <path
       style="font-size:12;fill:url(#2);"
       d="M 276.767 133.124L 365.767 120.124L 265.767 20.1241"
       id="path475"
       transform="matrix(0.213907,0,0,0.213907,61.1646,40.8892)" />
    <path
       style="font-size:12;fill:url(#linearGradient89);stroke:#1c5574;stroke-width:14.6092;stroke-opacity:0.992157;stroke-linejoin:round;stroke-linecap:round;"
       d="M 265.767 120.124L 365.767 120.124L 265.767 20.1241L 265.767 120.124"
       id="path476"
       transform="matrix(0.213907,0,0,0.213907,61.1646,40.8892)" />
  </g>
  <path
     style="font-size:12;fill:url(#linearGradient89);stroke:#1c5574;stroke-width:6.72641;stroke-opacity:0.992157;"
     d="M 265.767 120.124L 365.767 120.124L 265.767 20.1241L 265.767 120.124"
     id="path20"
     transform="matrix(0.278752,0,0,0.278752,30.3369,3.74839)" />
  <g
     id="g778">
    <path
       style="font-size:12;fill:#ff0000;fill-opacity:0.99;stroke:#cd0000;stroke-width:2.15943;stroke-opacity:0.99;"
       id="path2325"
       d="M 62.5183 70.676 C 66.6661 73.8177 75.8903 85.4223 82.1278 92.4282 C 88.034 99.5862 91.2126 103.934 98.4211 113.485 L 96.5997 114.349 C 90.7546 106.552 85.8722 100.727 80.212 94.1064 C 75.9701 89.3468 72.4538 86.181 68.0148 80.8586 L 60.6447 72.4199 L 62.5183 70.676 z "
       transform="matrix(1.44714,0,0,1.44714,-27.8899,-29.8484)"
       sodipodi:nodetypes="cccccccc" />
    <path
       style="font-size:12;fill:#fe0000;fill-opacity:0.99;stroke:#cd0000;stroke-width:3.06807;stroke-opacity:0.99;"
       id="path2326"
       d="M 110.771 76.6888 C 102.982 78.2562 96.7979 83.0569 92.4992 85.7984 C 74.7461 97.867 58.7006 114.005 45.2746 129.727 L 41.6946 127.243 C 55.9372 108.272 73.2479 95.6538 90.6654 82.9243 C 96.2134 79.0781 103.786 73.7772 110.771 72.8136 L 110.771 76.6888 z "
       transform="matrix(0.967787,0,0,1.07199,15.6818,-1.44861)"
       sodipodi:nodetypes="ccccccc" />
  </g>
</svg>
