<?xml version="1.0" standalone="no"?>
<!DOCTYPE svg PUBLIC "-//W3C//DTD SVG 20010904//EN"
"http://www.w3.org/TR/2001/REC-SVG-20010904/DTD/svg10.dtd"
[
 <!ATTLIST svg
  xmlns:xlink CDATA #FIXED "http://www.w3.org/1999/xlink">
]>
<!-- Created with Sodipodi ("http://www.sodipodi.com/") -->
<svg
   xml:space="preserve"
   width="128pt"
   height="128pt"
   viewBox="0 0 507.946 507.946"
   id="svg49"
   sodipodi:version="0.27"
   sodipodi:docname="/mnt/windows/Themes/Work/log.svg"
   sodipodi:docbase="/mnt/windows/Themes/Work/"
   xmlns="http://www.w3.org/2000/svg"
   xmlns:sodipodi="http://sodipodi.sourceforge.net/DTD/sodipodi-0.dtd"
   xmlns:xlink="http://www.w3.org/1999/xlink">
  <defs
     id="defs62">
    <radialGradient
       id="aigrd1"
       cx="218.9404"
       cy="219.7715"
       r="150.7063"
       fx="218.9404"
       fy="219.7715"
       gradientUnits="userSpaceOnUse"
       style="stroke:#000000;stroke-opacity:0.986014;stroke-width:0.981612;">
      <stop
         offset="0"
         style="stop-color:#73ffff;stroke:#000000;stroke-opacity:0.986014;stroke-width:0.981612;"
         id="stop53" />
      <stop
         offset="0.2809"
         style="stop-color:#2EA6B9;stroke:#000000;stroke-opacity:0.986014;stroke-width:0.981612;"
         id="stop54" />
      <stop
         offset="1"
         style="stop-color:#006b8b;stroke:#000000;stroke-opacity:0.986014;stroke-width:0.981612;"
         id="stop55" />
    </radialGradient>
  </defs>
  <sodipodi:namedview
     id="base" />
  <path
     style="font-size:12;stroke:none;stroke-width:0.979268;stroke-opacity:0.986014;fill:#a4c9ee;fill-opacity:0.7;"
     d="M134.757,263.776c0,66.739,54.298,121.04,121.039,121.04c66.739,0,121.039-54.301,121.039-121.04c0-66.741-54.3-121.039-121.039-121.039c-66.741,0-121.039,54.298-121.039,121.039z"
     id="path51"
     transform="matrix(1.89511,0,0,1.91236,-231.458,-247.971)" />
  <path
     style="font-size:12;fill:url(#aigrd1);fill-rule:evenodd;stroke:#1c6671;stroke-width:7.73106;stroke-opacity:0.988235;"
     d="M356.643,263.366c0,57.027-46.23,103.257-103.256,103.257c-57.027,0-103.256-46.229-103.256-103.257c0-57.027,46.229-103.256,103.256-103.256     c57.025,0,103.256,46.229,103.256,103.256z"
     id="path56"
     transform="matrix(2.04451,0,0,2.04451,-264.353,-281.723)" />
  <path
     style="font-size:12;fill:#ffffff;fill-opacity:0.99;stroke:#1c6772;stroke-opacity:0.988235;"
     d="M96.34,100.239l0.209,0.002l0.006-0.619l-0.21-0.002l-0.005,0.619z"
     id="path8"
     transform="matrix(3.04108,0,0,3.04108,66.4461,-85.9733)" />
  <path
     d="M 106.222 107.343 L 88.2447 152.068 L 94.4553 154.226 L 109.204 116.55 L 151.963 147.131 L 155.417 140.344 L 107.196 105.008 L 106.221 107.343 L 106.222 107.343 z "
     id="path27"
     style="font-size:12;fill:#ffffff;fill-opacity:0.99;stroke:#1c6772;stroke-opacity:0.988235;"
     transform="matrix(-1.61534,-4.59837,3.98776,-1.86268,-119.476,1084.05)"
     sodipodi:nodetypes="ccccccccc" />
  <path
     style="fill:#ffff13;fill-rule:nonzero;stroke:#1c6772;fill-opacity:0.99;stroke-opacity:0.988235;stroke-width:5.99214;stroke-linejoin:miter;stroke-linecap:butt;"
     id="path29"
     d="M 101.25 347.475 C 98.5315 347.65 105.747 322.527 106.636 319.653 C 112.987 306.607 131.908 267.851 137.975 259.452 C 145.02 249.45 154.673 236.485 165.167 251.59 C 186.89 292.035 183.61 292.232 199.72 325.954 C 205.683 335.935 207.354 345.409 213.833 355.068 C 216.909 359.655 222.636 368.889 222.294 361.599 C 218.73 325.37 227.756 296.597 237.841 261.827 C 247.005 234.494 262.54 217.324 272.189 207.175 C 280.448 198.206 290.838 184.338 302.026 180.517 C 314.795 172.606 329.127 173.113 334.384 188.885 C 353.84 232.066 358.16 277.798 367.781 321.056 C 371.17 332.282 375.165 347.229 378.354 346.907 C 383.367 308.033 387.302 290.69 395.093 259.204 C 398.469 246.833 406.347 232 418.403 225.294 L 427.998 236.294 C 422.764 244.699 415.139 253.564 412.342 262.285 C 406.533 294.436 398.672 327.754 392.609 359.497 C 387.426 381.48 372.909 376.347 365.531 364.093 C 358.153 351.838 352.573 331.393 350.308 324.885 C 338.742 282.738 335.541 242.03 321.275 198.254 C 318.993 193.572 318.336 191.435 312.635 196.285 C 303.768 204.044 294.499 210.979 286.351 219.566 C 275.207 231.845 260.888 255.405 251.845 283.873 C 245.587 316.076 239.44 341.913 236.474 368.327 C 234.162 379.405 231.22 388.562 216.262 384.862 C 204.768 372.777 192.992 359.698 183.912 337.864 C 161.708 298.525 168.143 305.14 153.835 264.463 C 149.287 263.737 149.168 273.629 145.811 276.786 C 138.949 291.11 138.84 297.03 134.201 305.687 C 131.437 321.725 127.925 321.324 124.136 333.949 C 122.355 340.327 118.914 349.272 115.125 354.833 L 101.25 347.475 z "
     transform="translate(-8.01184,-49.6724)"
     sodipodi:nodetypes="ccccccccccccccccccscccccccccccccc" />
  <path
     style="fill:black;fill-rule:nonzero;stroke:none;fill-opacity:1;stroke-opacity:1;stroke-width:1pt;stroke-linejoin:miter;stroke-linecap:butt;"
     id="path31"
     d="M 74.4806 446.858 C 61.1397 443.425 74.4227 429.499 79.0074 424.113 L 87.1219 429.923 C 77.383 441.978 84.942 438.621 74.4806 436.038 L 74.4806 446.858 z " />
  <path
     style="fill:black;fill-rule:nonzero;stroke:none;fill-opacity:1;stroke-opacity:1;stroke-width:1pt;stroke-linejoin:miter;stroke-linecap:butt;"
     id="path32"
     d="M -360.891 14.3498 C -360.344 9.56622 -365.182 22.9945 -366.808 27.5261 C -370.129 36.7773 -372.717 46.2368 -375.174 55.7481 C -381.923 81.8671 -387.918 108.169 -394.73 134.274 C -412.026 197.128 -435.049 262.614 -508.456 273.314 C -528.492 276.234 -547.998 274.36 -567.976 272.293 C -627.699 262.07 -729.456 239.352 -759.647 178.169 C -762.234 167.341 -760.905 161.196 -754.508 152.1 L -747.298 156.519 C -751.97 162.994 -753.176 167.332 -752.037 175.259 C -728.113 237.158 -624.146 261.134 -567.75 270.245 C -548.045 271.958 -528.942 273.304 -509.271 270.101 C -437.923 258.484 -413.994 195.805 -397.43 133.69 C -387.669 93.236 -384.802 49.2273 -371.443 9.80061 L -360.891 14.3498 z " />
  <path
     style="fill:none;fill-rule:evenodd;stroke:black;stroke-opacity:1;stroke-width:19.8416;stroke-linejoin:miter;stroke-linecap:butt;fill-opacity:1;"
     d="M 165.844 137.001 C 165.844 136.467 165.844 135.933 165.844 135.399 C 165.844 136.962 152.029 143.107 148.218 145.013 C 138.896 154.335 127.757 156.846 116.171 162.639 C 112.335 170.31 101.914 178.498 95.34 185.072 C 87.4417 192.97 83.9702 203.004 79.3165 212.312 C 72.3017 219.327 76.1118 242.63 76.1118 252.371 C 76.1118 270.473 78.3068 289.4 84.1235 306.851 C 84.1235 314.082 90.0991 324.043 95.34 329.284 C 95.34 333.257 103.558 343.911 106.556 346.909 C 108.402 348.755 107.387 350.114 109.761 350.114 "
     id="path34" />
  <path
     style="fill:none;fill-rule:evenodd;stroke:black;stroke-opacity:1;stroke-width:1pt;stroke-linejoin:miter;stroke-linecap:butt;fill-opacity:1;"
     d="M 92.1353 196.288 C 92.1353 196.822 92.1353 197.357 92.1353 197.891 C 92.1353 195.424 86.9236 207.909 84.1235 210.709 C 78.5437 221.869 74.5094 230.11 74.5094 242.757 C 74.5094 252.052 68.1 261.668 68.1 271.599 C 64.3562 279.086 69.4458 291.084 63.293 297.237 C 63.293 304.939 55.2812 310.913 55.2812 319.669 C 52.0046 326.223 50.7833 333.782 45.6671 338.898 C 45.6671 347.239 42.2329 359.269 45.6671 366.138 C 45.6671 372.523 46.6639 376.749 50.4741 380.559 C 50.4741 382.695 49.94 382.161 52.0765 382.161 "
     id="path35" />
</svg>
