<?xml version="1.0" standalone="no"?>
<!DOCTYPE svg PUBLIC "-//W3C//DTD SVG 20010904//EN"
"http://www.w3.org/TR/2001/REC-SVG-20010904/DTD/svg10.dtd"
[
 <!ATTLIST svg
  xmlns:xlink CDATA #FIXED "http://www.w3.org/1999/xlink">
]>
<!-- Created with Sodipodi ("http://www.sodipodi.com/") -->
<svg
   width="128pt"
   height="128pt"
   id="svg1"
   sodipodi:version="0.27"
   sodipodi:docname="/mnt/windows/Themes/Work/Blue-Sphere/mail_reply-b-green.svg"
   sodipodi:docbase="/mnt/windows/Themes/Work/Blue-Sphere/"
   xmlns="http://www.w3.org/2000/svg"
   xmlns:sodipodi="http://sodipodi.sourceforge.net/DTD/sodipodi-0.dtd"
   xmlns:xlink="http://www.w3.org/1999/xlink">
  <defs
     id="defs22">
    <linearGradient
       id="linearGradient124">
      <stop
         offset="0.000000"
         style="stop-color:#6ace34;stop-opacity:0.992157;"
         id="stop125" />
      <stop
         offset="1.000000"
         style="stop-color:#3d7a35;stop-opacity:0.952941;"
         id="stop126" />
    </linearGradient>
    <linearGradient
       id="linearGradient120">
      <stop
         offset="0.000000"
         style="stop-color:#f52755;stop-opacity:0.992157;"
         id="stop121" />
      <stop
         offset="1.000000"
         style="stop-color:#a81837;stop-opacity:0.952941;"
         id="stop122" />
    </linearGradient>
    <linearGradient
       id="linearGradient96">
      <stop
         offset="0.000000"
         style="stop-color:#fbddb2;stop-opacity:0.992157;"
         id="stop97" />
      <stop
         offset="1.000000"
         style="stop-color:#efa81a;stop-opacity:0.952941;"
         id="stop98" />
    </linearGradient>
    <linearGradient
       id="linearGradient1857">
      <stop
         offset="0.000000"
         style="stop-color:#fbddc7;stop-opacity:0.992157;"
         id="stop1858" />
      <stop
         offset="1.000000"
         style="stop-color:#efa81a;stop-opacity:0.952941;"
         id="stop1859" />
    </linearGradient>
    <linearGradient
       id="linearGradient168">
      <stop
         offset="0.000000"
         style="stop-color:#cdffff;stop-opacity:1;"
         id="stop169" />
      <stop
         offset="1.000000"
         style="stop-color:#0c5d7d;stop-opacity:0.905882;"
         id="stop170" />
    </linearGradient>
    <linearGradient
       id="linearGradient90">
      <stop
         offset="0.000000"
         style="stop-color:#cdffff;stop-opacity:1;"
         id="stop91" />
      <stop
         offset="1.000000"
         style="stop-color:#006b97;stop-opacity:0.905882;"
         id="stop92" />
    </linearGradient>
    <linearGradient
       id="linearGradient67">
      <stop
         offset="0.000000"
         style="stop-color:#d7ffff;stop-opacity:0.898039;"
         id="stop70" />
      <stop
         offset="1.000000"
         style="stop-color:#2ea6b9;stop-opacity:0.952941;"
         id="stop69" />
    </linearGradient>
    <linearGradient
       id="linearGradient57">
      <stop
         offset="0.000000"
         style="stop-color:#ffffff;stop-opacity:1;"
         id="stop59" />
      <stop
         offset="1.000000"
         style="stop-color:#797979;stop-opacity:1;"
         id="stop58" />
    </linearGradient>
    <defs
       id="defs4">
      <radialGradient
         id="1"
         cx="869.603027"
         cy="1973.579956"
         r="2106.649902"
         fx="869.603027"
         fy="1973.579956"
         gradientUnits="userSpaceOnUse"
         xlink:href="#linearGradient67" />
    </defs>
    <defs
       id="defs11">
      <linearGradient
         id="2"
         x1="255.848"
         y1="119.147"
         x2="375.686"
         y2="34.1009"
         gradientUnits="userSpaceOnUse">
        <stop
           offset="0"
           style="stop-color:#ffffff"
           id="stop13" />
        <stop
           offset="1"
           style="stop-color:#000000"
           id="stop14" />
      </linearGradient>
    </defs>
    <defs
       id="defs16">
      <linearGradient
         id="3"
         x1="275.053009"
         y1="109.384003"
         x2="356.480988"
         y2="30.864300"
         gradientUnits="userSpaceOnUse"
         xlink:href="#linearGradient57" />
    </defs>
    <radialGradient
       cx="3.03981e-14"
       cy="1.05578e-10"
       r="0.773346"
       fx="3.03981e-14"
       fy="1.05578e-10"
       xlink:href="#linearGradient168"
       id="radialGradient88"
       gradientUnits="objectBoundingBox"
       gradientTransform="matrix(0.945877,0,0,1.05722,0.264368,0.249996)"
       spreadMethod="pad" />
    <linearGradient
       x1="2.69643"
       y1="1.14655"
       x2="3.85147"
       y2="0.623116"
       xlink:href="#linearGradient67"
       id="linearGradient89"
       gradientUnits="objectBoundingBox"
       gradientTransform="translate(-2.65767,-0.201241)"
       spreadMethod="pad" />
    <linearGradient
       xlink:href="#linearGradient96"
       id="linearGradient1856"
       x1="-0.01654"
       y1="-0.546712"
       x2="0.0148676"
       y2="0.138341"
       gradientUnits="objectBoundingBox"
       gradientTransform="matrix(1.27999,-1.2809,0.380134,0.400852,0.419179,0.455777)"
       spreadMethod="pad" />
    <radialGradient
       xlink:href="#linearGradient1857"
       id="radialGradient1860"
       cx="-5.51513e-06"
       cy="-1.48419e-06"
       fx="-5.51513e-06"
       fy="-1.48419e-06"
       r="0.694199"
       gradientUnits="objectBoundingBox"
       gradientTransform="matrix(1.6481,-1.64928,0.295229,0.311319,0.00343702,0.809113)"
       spreadMethod="pad" />
    <radialGradient
       xlink:href="#linearGradient96"
       id="radialGradient95"
       cx="6.46047e-09"
       cy="5.68149e-08"
       fx="6.46047e-09"
       fy="5.68149e-08"
       r="0.242318"
       gradientUnits="objectBoundingBox"
       gradientTransform="matrix(0.8189,0,0,1.22115,0.417826,0.462637)"
       spreadMethod="pad" />
    <linearGradient
       x1="-0.01654"
       y1="-0.546712"
       x2="0.0148676"
       y2="0.138341"
       xlink:href="#linearGradient120"
       id="linearGradient123"
       gradientUnits="objectBoundingBox"
       gradientTransform="matrix(1.27999,-1.2809,0.380134,0.400852,0.419179,0.455777)"
       spreadMethod="pad" />
    <linearGradient
       x1="-0.01654"
       y1="-0.546712"
       x2="0.0148676"
       y2="0.138341"
       xlink:href="#linearGradient124"
       id="linearGradient127"
       gradientUnits="objectBoundingBox"
       gradientTransform="matrix(1.27999,-1.2809,0.380134,0.400852,0.419179,0.455777)"
       spreadMethod="pad" />
    <linearGradient
       xlink:href="#linearGradient124"
       id="linearGradient217"
       x1="0.497054"
       y1="-0.0168862"
       x2="0.558393"
       y2="0.880475"
       gradientUnits="objectBoundingBox"
       gradientTransform="matrix(1,1.79104e-09,-5.10191e-10,1,-3.67651e-07,-3.78757e-07)"
       spreadMethod="pad" />
  </defs>
  <sodipodi:namedview
     id="base" />
  <g
     id="g47"
     transform="translate(0,4.03785)">
    <path
       style="font-size:12;fill:url(#radialGradient88);stroke:#0c5d7d;stroke-width:4.03585;stroke-opacity:0.99;"
       d="M 35.399 39.1321 L 375.893 33.5501 L 377.219 548.198 L 35.399 548.198 L 35.399 39.1321 z "
       id="path1761"
       transform="matrix(0.343119,0.0837266,-0.0592633,0.120197,28.844,55.371)"
       sodipodi:nodetypes="ccccc" />
    <path
       style="font-size:12;fill:#ffffff;fill-opacity:0.699301;stroke:#2ea6b9;stroke-width:16.2714;stroke-opacity:0.82;"
       d="M 23.9471 20.1241 L 364.441 25.8291 L 365.767 535.103 L 23.9471 535.103 L 23.9471 20.1241 z "
       id="path1762"
       transform="matrix(0.343119,0.0837266,-0.0579864,0.117606,28.4038,56.2633)"
       sodipodi:nodetypes="ccccc" />
    <path
       style="font-size:12;fill:url(#linearGradient89);stroke:#2ea6b9;stroke-width:7.27265;stroke-opacity:0.91;stroke-linejoin:round;stroke-linecap:round;"
       d="M 251.136 102.707 L 365.767 120.124 L 241.171 -3.33314 L 251.136 102.707 z "
       id="path1764"
       transform="matrix(-0.377479,-0.35111,0.608169,-0.108749,100.73,203.492)"
       sodipodi:nodetypes="cccc" />
    <path
       style="font-size:12;fill:url(#linearGradient89);stroke:#2ea6b9;stroke-width:7.27265;stroke-opacity:0.91;stroke-linejoin:round;stroke-linecap:round;"
       d="M 254.059 105.609 L 365.767 120.124 L 241.42 -2.12248 L 254.059 105.609 z "
       id="path1033"
       transform="matrix(0.377479,0.35111,-0.608169,0.108749,58.0855,7.73449)"
       sodipodi:nodetypes="cccc" />
    <path
       style="font-size:12;fill:url(#linearGradient89);stroke:#2ea6b9;stroke-width:7.19028;stroke-opacity:0.91;stroke-linejoin:round;stroke-linecap:round;"
       d="M 235.786 86.3366 C 235.568 97.5235 242.472 102.643 248.275 108.48 C 254.886 114.477 264.563 120.344 269.447 120.773 L 364.018 127.287 L 369.222 121.063 L 235.859 -12.3448 L 234.593 -5.9569 L 235.786 86.3366 z "
       id="path1035"
       transform="matrix(-0.566564,0.161296,-0.298853,-0.374622,253.198,106.511)"
       sodipodi:nodetypes="cccccccc" />
    <path
       style="font-size:12;fill:url(#linearGradient89);stroke:#2ea6b9;stroke-width:6.42469;stroke-opacity:0.91;stroke-linejoin:round;stroke-linecap:round;"
       d="M 239.418 91.2228 C 240.625 104.208 244.532 110.088 250.335 115.925 C 256.946 121.922 263.23 123.516 275.971 123.436 L 353.134 125.25 L 365.266 122.743 L 236.95 -6.48603 L 236.079 12.753 L 239.418 91.2228 z "
       id="path1032"
       transform="matrix(0.61213,-0.209878,0.291546,0.432968,-107.633,113.839)"
       sodipodi:nodetypes="cccccccc" />
  </g>
  <path
     transform="matrix(0.594601,0.801615,-0.826218,0.61285,86.4925,-20.5632)"
     style="font-size:12;fill:url(#linearGradient217);stroke:#0c482b;stroke-width:4;stroke-opacity:0.992157;stroke-linecap:butt;"
     d="M 47.9039 54.279 L 62.0854 68.8027 L 17.4783 73.279 L 20.6965 26.6123 L 33.5835 39.2682 C 42.0502 32.1481 46.17 27.7624 53.5464 24.2622 C 61.6695 19.6691 67.1959 18.2482 78.2542 17.3595 C 91.2542 17.3595 100.809 21.2682 111.922 33.2333 C 123.321 45.5007 123.015 60.7301 122.015 68.7301 C 118.887 85.4023 115.836 96.989 100.379 108.328 C 84.6705 119.995 71.9759 122.531 55.3845 119.228 C 39.1312 116.168 25.777 107.101 13.717 96.6953 C 1.65713 86.2899 -7.55242 73.3007 -13.0834 65.6976 C -7.44112 69.8857 4.50568 82.63 16.9347 90.147 C 26.9856 96.1935 47.2434 105.529 64.2033 106.28 C 77.2018 106.627 89.9967 107.225 101.751 91.962 C 112.986 73.8947 105.444 55.5109 97.5721 46.7203 C 89.4494 38.2578 76.6103 32.8022 61.6585 43.2074 C 55.3405 48.5965 53.7407 47.723 47.9039 54.279 z "
     id="path216"
     sodipodi:nodetypes="cccccccsczzscssczcc" />
</svg>
