<?xml version="1.0" standalone="no"?>
<!DOCTYPE svg PUBLIC "-//W3C//DTD SVG 20010904//EN"
"http://www.w3.org/TR/2001/REC-SVG-20010904/DTD/svg10.dtd"
[
 <!ATTLIST svg
  xmlns:xlink CDATA #FIXED "http://www.w3.org/1999/xlink">
]>
<!-- Created with Sodipodi ("http://www.sodipodi.com/") -->
<svg
   width="22pt"
   height="22pt"
   id="svg1"
   sodipodi:version="0.27"
   sodipodi:docname="/mnt/windows/Themes/Work/Blue-Sphere/mail_replyall-c.svg"
   sodipodi:docbase="/mnt/windows/Themes/Work/Blue-Sphere/"
   xmlns="http://www.w3.org/2000/svg"
   xmlns:sodipodi="http://sodipodi.sourceforge.net/DTD/sodipodi-0.dtd"
   xmlns:xlink="http://www.w3.org/1999/xlink">
  <defs
     id="defs22">
    <linearGradient
       id="linearGradient124">
      <stop
         offset="0.000000"
         style="stop-color:#6ace34;stop-opacity:0.992157;"
         id="stop125" />
      <stop
         offset="1.000000"
         style="stop-color:#3d7a35;stop-opacity:0.952941;"
         id="stop126" />
    </linearGradient>
    <linearGradient
       id="linearGradient120">
      <stop
         offset="0.000000"
         style="stop-color:#f52755;stop-opacity:0.992157;"
         id="stop121" />
      <stop
         offset="1.000000"
         style="stop-color:#a81837;stop-opacity:0.952941;"
         id="stop122" />
    </linearGradient>
    <linearGradient
       id="linearGradient96">
      <stop
         offset="0.000000"
         style="stop-color:#fbddb2;stop-opacity:0.992157;"
         id="stop97" />
      <stop
         offset="1.000000"
         style="stop-color:#efa81a;stop-opacity:0.952941;"
         id="stop98" />
    </linearGradient>
    <linearGradient
       id="linearGradient1857">
      <stop
         offset="0.000000"
         style="stop-color:#fbddc7;stop-opacity:0.992157;"
         id="stop1858" />
      <stop
         offset="1.000000"
         style="stop-color:#efa81a;stop-opacity:0.952941;"
         id="stop1859" />
    </linearGradient>
    <linearGradient
       id="linearGradient168">
      <stop
         offset="0.000000"
         style="stop-color:#cdffff;stop-opacity:1;"
         id="stop169" />
      <stop
         offset="1.000000"
         style="stop-color:#0c5d7d;stop-opacity:0.905882;"
         id="stop170" />
    </linearGradient>
    <linearGradient
       id="linearGradient90">
      <stop
         offset="0.000000"
         style="stop-color:#cdffff;stop-opacity:1;"
         id="stop91" />
      <stop
         offset="1.000000"
         style="stop-color:#006b97;stop-opacity:0.905882;"
         id="stop92" />
    </linearGradient>
    <linearGradient
       id="linearGradient67">
      <stop
         offset="0.000000"
         style="stop-color:#d7ffff;stop-opacity:0.898039;"
         id="stop70" />
      <stop
         offset="1.000000"
         style="stop-color:#2ea6b9;stop-opacity:0.952941;"
         id="stop69" />
    </linearGradient>
    <linearGradient
       id="linearGradient57">
      <stop
         offset="0.000000"
         style="stop-color:#ffffff;stop-opacity:1;"
         id="stop59" />
      <stop
         offset="1.000000"
         style="stop-color:#797979;stop-opacity:1;"
         id="stop58" />
    </linearGradient>
    <defs
       id="defs4">
      <radialGradient
         id="1"
         cx="869.603027"
         cy="1973.579956"
         r="2106.649902"
         fx="869.603027"
         fy="1973.579956"
         gradientUnits="userSpaceOnUse"
         xlink:href="#linearGradient67" />
    </defs>
    <defs
       id="defs11">
      <linearGradient
         id="2"
         x1="255.848"
         y1="119.147"
         x2="375.686"
         y2="34.1009"
         gradientUnits="userSpaceOnUse">
        <stop
           offset="0"
           style="stop-color:#ffffff"
           id="stop13" />
        <stop
           offset="1"
           style="stop-color:#000000"
           id="stop14" />
      </linearGradient>
    </defs>
    <defs
       id="defs16">
      <linearGradient
         id="3"
         x1="275.053009"
         y1="109.384003"
         x2="356.480988"
         y2="30.864300"
         gradientUnits="userSpaceOnUse"
         xlink:href="#linearGradient57" />
    </defs>
    <radialGradient
       cx="3.03981e-14"
       cy="1.05578e-10"
       r="0.773346"
       fx="3.03981e-14"
       fy="1.05578e-10"
       xlink:href="#linearGradient168"
       id="radialGradient88"
       gradientUnits="objectBoundingBox"
       gradientTransform="matrix(0.945877,0,0,1.05722,0.264368,0.249996)"
       spreadMethod="pad" />
    <linearGradient
       x1="2.69643"
       y1="1.14655"
       x2="3.85147"
       y2="0.623116"
       xlink:href="#linearGradient67"
       id="linearGradient89"
       gradientUnits="objectBoundingBox"
       gradientTransform="translate(-2.65767,-0.201241)"
       spreadMethod="pad" />
    <linearGradient
       xlink:href="#linearGradient96"
       id="linearGradient1856"
       x1="-0.01654"
       y1="-0.546712"
       x2="0.0148676"
       y2="0.138341"
       gradientUnits="objectBoundingBox"
       gradientTransform="matrix(1.27999,-1.2809,0.380134,0.400852,0.419179,0.455777)"
       spreadMethod="pad" />
    <radialGradient
       xlink:href="#linearGradient1857"
       id="radialGradient1860"
       cx="-5.51513e-06"
       cy="-1.48419e-06"
       fx="-5.51513e-06"
       fy="-1.48419e-06"
       r="0.694199"
       gradientUnits="objectBoundingBox"
       gradientTransform="matrix(1.6481,-1.64928,0.295229,0.311319,0.00343702,0.809113)"
       spreadMethod="pad" />
    <radialGradient
       xlink:href="#linearGradient96"
       id="radialGradient95"
       cx="6.46047e-09"
       cy="5.68149e-08"
       fx="6.46047e-09"
       fy="5.68149e-08"
       r="0.242318"
       gradientUnits="objectBoundingBox"
       gradientTransform="matrix(0.8189,0,0,1.22115,0.417826,0.462637)"
       spreadMethod="pad" />
    <linearGradient
       x1="-0.01654"
       y1="-0.546712"
       x2="0.0148676"
       y2="0.138341"
       xlink:href="#linearGradient120"
       id="linearGradient123"
       gradientUnits="objectBoundingBox"
       gradientTransform="matrix(1.27999,-1.2809,0.380134,0.400852,0.419179,0.455777)"
       spreadMethod="pad" />
    <linearGradient
       x1="-0.01654"
       y1="-0.546712"
       x2="0.0148676"
       y2="0.138341"
       xlink:href="#linearGradient124"
       id="linearGradient127"
       gradientUnits="objectBoundingBox"
       gradientTransform="matrix(1.27999,-1.2809,0.380134,0.400852,0.419179,0.455777)"
       spreadMethod="pad" />
  </defs>
  <sodipodi:namedview
     id="base" />
  <path
     style="font-size:12;fill:url(#radialGradient88);stroke:#0c5d7d;stroke-width:23.2612;stroke-opacity:0.99;"
     d="M 35.399 39.1321 L 375.893 33.5501 L 377.219 548.198 L 35.399 548.198 L 35.399 39.1321 z "
     id="path1761"
     transform="matrix(0.0572901,0.0139798,-0.00989511,0.0200691,5.43633,9.82334)"
     sodipodi:nodetypes="ccccc" />
  <path
     style="font-size:12;fill:#ffffff;fill-opacity:0.699301;stroke:#2ea6b9;stroke-width:23.516;stroke-opacity:0.82;"
     d="M 23.9471 20.1241 L 364.441 25.8291 L 365.767 535.103 L 23.9471 535.103 L 23.9471 20.1241 z "
     id="path1762"
     transform="matrix(0.0572901,0.0139798,-0.0096819,0.0196365,5.36283,9.97234)"
     sodipodi:nodetypes="ccccc" />
  <path
     style="font-size:12;fill:url(#linearGradient89);stroke:#2ea6b9;stroke-width:9.90955;stroke-linecap:round;stroke-linejoin:round;stroke-opacity:0.91;"
     d="M 251.136 102.707 L 365.767 120.124 L 241.171 -3.33314 L 251.136 102.707 z "
     id="path1764"
     transform="matrix(-0.0630271,-0.0586244,0.101545,-0.0181577,17.4389,34.555)"
     sodipodi:nodetypes="cccc" />
  <path
     style="font-size:12;fill:url(#linearGradient89);stroke:#2ea6b9;stroke-width:9.90955;stroke-linecap:round;stroke-linejoin:round;stroke-opacity:0.91;"
     d="M 254.059 105.609 L 365.767 120.124 L 241.42 -2.12248 L 254.059 105.609 z "
     id="path1033"
     transform="matrix(0.0630271,0.0586244,-0.101545,0.0181577,10.3187,1.86955)"
     sodipodi:nodetypes="cccc" />
  <path
     style="font-size:12;fill:url(#linearGradient89);stroke:#2ea6b9;stroke-width:9.79731;stroke-linecap:round;stroke-linejoin:round;stroke-opacity:0.91;"
     d="M 235.786 86.3366 C 235.568 97.5235 242.472 102.643 248.275 108.48 C 254.886 114.477 264.563 120.344 269.447 120.773 L 364.018 127.287 L 369.222 121.063 L 235.859 -12.3448 L 234.593 -5.9569 L 235.786 86.3366 z "
     id="path1035"
     transform="matrix(-0.0945983,0.0269313,-0.0498991,-0.0625501,42.8964,18.3621)"
     sodipodi:nodetypes="cccccccc" />
  <path
     style="font-size:12;fill:url(#linearGradient89);stroke:#2ea6b9;stroke-width:8.75414;stroke-linecap:round;stroke-linejoin:round;stroke-opacity:0.91;"
     d="M 239.418 91.2228 C 240.625 104.208 244.532 110.088 250.335 115.925 C 256.946 121.922 263.23 123.516 275.971 123.436 L 353.134 125.25 L 365.266 122.743 L 236.95 -6.48603 L 236.079 12.753 L 239.418 91.2228 z "
     id="path1032"
     transform="matrix(0.102207,-0.0350431,0.0486791,0.0722921,-17.351,19.5857)"
     sodipodi:nodetypes="cccccccc" />
  <path
     transform="matrix(-0.0219742,0.125392,-0.12924,-0.0226486,13.0692,3.56819)"
     style="font-size:12;stroke:#580400;stroke-width:6.45956;stroke-opacity:0.992157;stroke-linejoin:round;fill:url(#linearGradient1856);stroke-linecap:butt;"
     d="M 41.6706 66.0692 L 65.306 74.3775 L 14 84 L 22.2649 29.1887 L 29.102 54.2767 C 35.4348 45.7126 37.0391 44.8945 46.1854 35.4188 C 66.589 19.806 90.7515 11.1958 108.324 12.7748 C 99.3652 20.259 86.6398 27.3093 73.805 35.2633 C 59.6141 46.1963 54.9652 50.1565 41.6706 66.0692 z "
     id="path266"
     sodipodi:nodetypes="ccccccccc" />
  <path
     transform="matrix(0.0219742,0.125392,0.12924,-0.0226486,15.039,5.92791)"
     style="font-size:12;stroke:#0c482b;stroke-width:6.45956;stroke-opacity:0.992157;stroke-linejoin:round;fill:url(#linearGradient127);"
     d="M 41.6706 66.0692 L 65.306 74.3775 L 14 84 L 22.2649 29.1887 L 29.102 54.2767 C 35.4348 45.7126 37.0391 44.8945 46.1854 35.4188 C 66.589 19.806 90.7515 11.1958 108.324 12.7748 C 99.3652 20.259 86.6398 27.3093 73.805 35.2633 C 59.6141 46.1963 54.9652 50.1565 41.6706 66.0692 z "
     id="path118"
     sodipodi:nodetypes="ccccccccc" />
  <path
     transform="matrix(-0.0821986,0.097208,-0.100191,-0.0847211,23.4404,6.95546)"
     style="font-size:12;stroke:#580400;stroke-width:6.45956;stroke-opacity:0.992157;stroke-linejoin:round;fill:url(#linearGradient123);"
     d="M 41.6706 66.0692 L 65.306 74.3775 L 14 84 L 22.2649 29.1887 L 29.102 54.2767 C 35.4348 45.7126 37.0391 44.8945 46.1854 35.4188 C 66.589 19.806 90.7515 11.1958 108.324 12.7748 C 99.3652 20.259 86.6398 27.3093 73.805 35.2633 C 59.6141 46.1963 54.9652 50.1565 41.6706 66.0692 z "
     id="path119"
     sodipodi:nodetypes="ccccccccc" />
</svg>
