<?xml version="1.0" encoding="UTF-8" standalone="no"?>
<!-- Created with Sodipodi ("http://www.sodipodi.com/") -->
<svg
   xmlns:dc="http://purl.org/dc/elements/1.1/"
   xmlns:cc="http://web.resource.org/cc/"
   xmlns:rdf="http://www.w3.org/1999/02/22-rdf-syntax-ns#"
   xmlns:svg="http://www.w3.org/2000/svg"
   xmlns="http://www.w3.org/2000/svg"
   xmlns:xlink="http://www.w3.org/1999/xlink"
   xmlns:sodipodi="http://inkscape.sourceforge.net/DTD/sodipodi-0.dtd"
   xmlns:inkscape="http://www.inkscape.org/namespaces/inkscape"
   version="1"
   x="0.00000000"
   y="0.00000000"
   width="32pt"
   height="32pt"
   viewBox="0 0 256 256"
   id="svg548"
   sodipodi:version="0.32"
   sodipodi:docname="Nuvola music.svg"
   sodipodi:docbase="C:\Documents and Settings\Admin\My Documents"
   inkscape:version="0.43+devel">
  <metadata
     id="metadata6574">
    <rdf:RDF>
      <cc:Work
         rdf:about="">
        <dc:format>image/svg+xml</dc:format>
        <dc:type
           rdf:resource="http://purl.org/dc/dcmitype/StillImage" />
      </cc:Work>
    </rdf:RDF>
  </metadata>
  <sodipodi:namedview
     id="base"
     inkscape:zoom="1.4142136"
     inkscape:cx="17.072137"
     inkscape:cy="39.035465"
     inkscape:window-width="1280"
     inkscape:window-height="954"
     inkscape:window-x="-4"
     inkscape:window-y="-4"
     inkscape:current-layer="svg548"
     inkscape:object-points="false"
     inkscape:object-bbox="false"
     objecttolerance="10000"
     inkscape:grid-bbox="true"
     width="25px"
     height="35px"
     inkscape:grid-points="false"
     showgrid="true" />
  <defs
     id="defs647">
    <linearGradient
       id="linearGradient18594"
       gradientUnits="userSpaceOnUse"
       x1="128.0024"
       y1="39.862801"
       x2="128.0024"
       y2="216.15871"
       gradientTransform="matrix(1.881965,0,0,1.881965,-28.93882,-142.0167)">
      <stop
         offset="0"
         style="stop-color:#003;stop-opacity:1;"
         id="stop18596" />
      <stop
         offset="1"
         style="stop-color:#00003e;stop-opacity:1;"
         id="stop18598" />
    </linearGradient>
    <linearGradient
       inkscape:collect="always"
       xlink:href="#linearGradient18594"
       id="linearGradient18584"
       gradientUnits="userSpaceOnUse"
       gradientTransform="matrix(1.22327,0,0,1.22327,-65.73658,-48.0762)"
       x1="128.0024"
       y1="39.862801"
       x2="128.0024"
       y2="216.15871" />
    <linearGradient
       id="linearGradient18588"
       gradientUnits="userSpaceOnUse"
       x1="127.7437"
       y1="211.125"
       x2="127.7436"
       y2="44.909199"
       gradientTransform="matrix(1.881965,0,0,1.881965,-28.93882,-142.0167)">
      <stop
         offset="0"
         style="stop-color:#000072;stop-opacity:1;"
         id="stop18590" />
      <stop
         offset="1"
         style="stop-color:#5151ff;stop-opacity:1;"
         id="stop18592" />
    </linearGradient>
    <linearGradient
       inkscape:collect="always"
       xlink:href="#linearGradient18588"
       id="linearGradient18581"
       gradientUnits="userSpaceOnUse"
       gradientTransform="matrix(1.22327,0,0,1.22327,-65.73658,-48.0762)"
       x1="127.7437"
       y1="211.125"
       x2="127.7436"
       y2="44.909199" />
    <linearGradient
       inkscape:collect="always"
       xlink:href="#linearGradient18507"
       id="linearGradient18577"
       gradientUnits="userSpaceOnUse"
       gradientTransform="matrix(1.22327,0,0,1.22327,-65.73658,-48.0762)"
       x1="126.2256"
       y1="55.005901"
       x2="126.2256"
       y2="283.18289" />
    <radialGradient
       inkscape:collect="always"
       xlink:href="#radialGradient18501"
       id="radialGradient18574"
       gradientUnits="userSpaceOnUse"
       gradientTransform="matrix(1.010419,-3.02148e-2,-3.02148e-2,0.902771,-43.50678,7.408)"
       cx="100.5962"
       cy="124.4897"
       fx="100.5962"
       fy="124.4897"
       r="86.195503" />
    <radialGradient
       id="radialGradient18501"
       cx="100.5962"
       cy="124.4897"
       r="86.195503"
       fx="100.5962"
       fy="124.4897"
       gradientTransform="matrix(1.554503,-4.648454e-2,-4.648454e-2,1.38889,5.260633,-56.65603)"
       gradientUnits="userSpaceOnUse">
      <stop
         offset="0.3933"
         style="stop-color:#FFFFFF"
         id="stop18503" />
      <stop
         offset="0.73030001"
         style="stop-color:white;stop-opacity:0;"
         id="stop18505" />
    </radialGradient>
    <radialGradient
       inkscape:collect="always"
       xlink:href="#radialGradient18501"
       id="radialGradient17614"
       gradientUnits="userSpaceOnUse"
       gradientTransform="matrix(0.157878,-4.721063e-3,-4.721063e-3,0.141058,147.4719,327.706)"
       cx="100.5962"
       cy="124.4897"
       fx="100.5962"
       fy="124.4897"
       r="86.195503" />
    <linearGradient
       id="linearGradient18507"
       gradientUnits="userSpaceOnUse"
       x1="126.2256"
       y1="55.005901"
       x2="126.2256"
       y2="283.18289"
       gradientTransform="matrix(1.881965,0,0,1.881965,-28.93882,-142.0167)">
      <stop
         offset="0"
         style="stop-color:#FFFFFF"
         id="stop18509" />
      <stop
         offset="0.382"
         style="stop-color:blue;stop-opacity:1;"
         id="stop18511" />
      <stop
         offset="0.43309999"
         style="stop-color:#0000fb;stop-opacity:1;"
         id="stop18513" />
      <stop
         offset="0.4874"
         style="stop-color:#1717ff;stop-opacity:1;"
         id="stop18515" />
      <stop
         offset="0.54320002"
         style="stop-color:#0303ff;stop-opacity:1;"
         id="stop18517" />
      <stop
         offset="0.59969997"
         style="stop-color:#0000e4;stop-opacity:1;"
         id="stop18519" />
      <stop
         offset="0.65170002"
         style="stop-color:#0000c2;stop-opacity:1;"
         id="stop18521" />
      <stop
         offset="0.8258"
         style="stop-color:#00008e;stop-opacity:1;"
         id="stop18523" />
    </linearGradient>
    <radialGradient
       gradientUnits="userSpaceOnUse"
       gradientTransform="matrix(1.554503,-4.648454e-2,-4.648454e-2,1.38889,5.260633,-56.65603)"
       fy="124.4897"
       fx="100.5962"
       r="86.195503"
       cy="124.4897"
       cx="100.5962"
       id="radialGradient14887">
      <stop
         id="stop14889"
         style="stop-color:#FFFFFF"
         offset="0.3933" />
      <stop
         id="stop14891"
         style="stop-color:#e10000;stop-opacity:1;"
         offset="0.73030001" />
    </radialGradient>
    <radialGradient
       inkscape:collect="always"
       xlink:href="#radialGradient14887"
       id="radialGradient14000"
       gradientUnits="userSpaceOnUse"
       gradientTransform="matrix(0.157878,-4.721063e-3,-4.721063e-3,0.141058,147.4719,327.706)"
       cx="100.5962"
       cy="124.4897"
       fx="100.5962"
       fy="124.4897"
       r="86.195503" />
    <linearGradient
       gradientTransform="matrix(1.881965,0,0,1.881965,-28.93882,-142.0167)"
       y2="283.18289"
       x2="126.2256"
       y1="55.005901"
       x1="126.2256"
       gradientUnits="userSpaceOnUse"
       id="linearGradient15766">
      <stop
         id="stop15768"
         style="stop-color:#FFFFFF"
         offset="0" />
      <stop
         id="stop15770"
         style="stop-color:red;stop-opacity:1;"
         offset="0.382" />
      <stop
         id="stop15772"
         style="stop-color:#fb0000;stop-opacity:1;"
         offset="0.43309999" />
      <stop
         id="stop15774"
         style="stop-color:#e00;stop-opacity:1;"
         offset="0.4874" />
      <stop
         id="stop15776"
         style="stop-color:#d90000;stop-opacity:1;"
         offset="0.54320002" />
      <stop
         id="stop15778"
         style="stop-color:#b00;stop-opacity:1;"
         offset="0.59969997" />
      <stop
         id="stop15780"
         style="stop-color:#900;stop-opacity:1;"
         offset="0.65170002" />
      <stop
         id="stop15782"
         style="stop-color:#600;stop-opacity:1;"
         offset="0.8258" />
    </linearGradient>
    <linearGradient
       inkscape:collect="always"
       xlink:href="#linearGradient15766"
       id="linearGradient14003"
       gradientUnits="userSpaceOnUse"
       gradientTransform="matrix(0.191136,0,0,0.191136,143.9985,319.0366)"
       x1="126.2256"
       y1="55.005901"
       x2="126.2256"
       y2="283.18289" />
    <linearGradient
       gradientTransform="matrix(1.881965,0,0,1.881965,-28.93882,-142.0167)"
       y2="44.909199"
       x2="127.7436"
       y1="211.125"
       x1="127.7437"
       gradientUnits="userSpaceOnUse"
       id="linearGradient16657">
      <stop
         id="stop16659"
         style="stop-color:#900;stop-opacity:1;"
         offset="0" />
      <stop
         id="stop16661"
         style="stop-color:red;stop-opacity:1;"
         offset="1" />
    </linearGradient>
    <linearGradient
       inkscape:collect="always"
       xlink:href="#linearGradient16657"
       id="linearGradient14007"
       gradientUnits="userSpaceOnUse"
       gradientTransform="matrix(0.191136,0,0,0.191136,143.9985,319.0366)"
       x1="127.7437"
       y1="211.125"
       x2="127.7436"
       y2="44.909199" />
    <linearGradient
       gradientTransform="matrix(1.881965,0,0,1.881965,-28.93882,-142.0167)"
       y2="216.15871"
       x2="128.0024"
       y1="39.862801"
       x1="128.0024"
       gradientUnits="userSpaceOnUse"
       id="linearGradient17536">
      <stop
         id="stop17538"
         style="stop-color:#300;stop-opacity:1;"
         offset="0" />
      <stop
         id="stop17540"
         style="stop-color:#600;stop-opacity:1;"
         offset="1" />
    </linearGradient>
    <linearGradient
       inkscape:collect="always"
       xlink:href="#linearGradient17536"
       id="linearGradient14010"
       gradientUnits="userSpaceOnUse"
       gradientTransform="matrix(0.191136,0,0,0.191136,143.9985,319.0366)"
       x1="128.0024"
       y1="39.862801"
       x2="128.0024"
       y2="216.15871" />
    <linearGradient
       id="POUETID_9_"
       gradientUnits="userSpaceOnUse"
       x1="128.0024"
       y1="39.8628"
       x2="128.0024"
       y2="216.1587"
       gradientTransform="matrix(1.881965,0.000000,0.000000,1.881965,-28.93882,-142.0167)">
      <stop
         offset="0"
         style="stop-color:#003333"
         id="stop3256" />
      <stop
         offset="1"
         style="stop-color:#006600"
         id="stop3257" />
    </linearGradient>
    <linearGradient
       id="POUETID_10_"
       gradientUnits="userSpaceOnUse"
       x1="127.7437"
       y1="211.125"
       x2="127.7436"
       y2="44.9092"
       gradientTransform="matrix(1.881965,0.000000,0.000000,1.881965,-28.93882,-142.0167)">
      <stop
         offset="0"
         style="stop-color:#009933"
         id="stop3263" />
      <stop
         offset="1"
         style="stop-color:#00FF00"
         id="stop3264" />
    </linearGradient>
    <linearGradient
       id="POUETID_11_"
       gradientUnits="userSpaceOnUse"
       x1="126.2256"
       y1="55.0059"
       x2="126.2256"
       y2="283.1829"
       gradientTransform="matrix(1.881965,0.000000,0.000000,1.881965,-28.93882,-142.0167)">
      <stop
         offset="0"
         style="stop-color:#FFFFFF"
         id="stop3271" />
      <stop
         offset="0.382"
         style="stop-color:#00FF00"
         id="stop3272" />
      <stop
         offset="0.4331"
         style="stop-color:#00FB02"
         id="stop3273" />
      <stop
         offset="0.4874"
         style="stop-color:#00EE09"
         id="stop3274" />
      <stop
         offset="0.5432"
         style="stop-color:#00D913"
         id="stop3275" />
      <stop
         offset="0.5997"
         style="stop-color:#00BB22"
         id="stop3276" />
      <stop
         offset="0.6517"
         style="stop-color:#009933"
         id="stop3277" />
      <stop
         offset="0.8258"
         style="stop-color:#006600"
         id="stop3278" />
    </linearGradient>
    <radialGradient
       id="POUETID_12_"
       cx="100.5962"
       cy="124.4897"
       r="86.1955"
       fx="100.5962"
       fy="124.4897"
       gradientTransform="matrix(1.554503,-4.648454e-2,-4.648454e-2,1.388890,5.260633,-56.65603)"
       gradientUnits="userSpaceOnUse">
      <stop
         offset="0.3933"
         style="stop-color:#FFFFFF"
         id="stop3288" />
      <stop
         offset="0.73030001"
         style="stop-color:white;stop-opacity:0;"
         id="stop3289" />
    </radialGradient>
    <linearGradient
       inkscape:collect="always"
       xlink:href="#POUETID_9_"
       id="linearGradient11253"
       gradientUnits="userSpaceOnUse"
       gradientTransform="matrix(1.881965,0,0,1.881965,-28.93882,-142.0167)"
       x1="128.0024"
       y1="39.8628"
       x2="128.0024"
       y2="216.1587" />
    <linearGradient
       inkscape:collect="always"
       xlink:href="#POUETID_10_"
       id="linearGradient11255"
       gradientUnits="userSpaceOnUse"
       gradientTransform="matrix(1.881965,0,0,1.881965,-28.93882,-142.0167)"
       x1="127.7437"
       y1="211.125"
       x2="127.7436"
       y2="44.9092" />
    <linearGradient
       inkscape:collect="always"
       xlink:href="#POUETID_11_"
       id="linearGradient11257"
       gradientUnits="userSpaceOnUse"
       gradientTransform="matrix(1.881965,0,0,1.881965,-28.93882,-142.0167)"
       x1="126.2256"
       y1="55.0059"
       x2="126.2256"
       y2="283.1829" />
    <radialGradient
       inkscape:collect="always"
       xlink:href="#POUETID_12_"
       id="radialGradient11259"
       gradientUnits="userSpaceOnUse"
       gradientTransform="matrix(1.554503,-4.648454e-2,-4.648454e-2,1.38889,5.260633,-56.65603)"
       cx="100.5962"
       cy="124.4897"
       fx="100.5962"
       fy="124.4897"
       r="86.1955" />
    <linearGradient
       inkscape:collect="always"
       xlink:href="#POUETID_9_"
       id="linearGradient17597"
       gradientUnits="userSpaceOnUse"
       gradientTransform="matrix(1.881965,0,0,1.881965,-28.93882,-142.0167)"
       x1="128.0024"
       y1="39.8628"
       x2="128.0024"
       y2="216.1587" />
    <linearGradient
       inkscape:collect="always"
       xlink:href="#POUETID_10_"
       id="linearGradient17599"
       gradientUnits="userSpaceOnUse"
       gradientTransform="matrix(1.881965,0,0,1.881965,-28.93882,-142.0167)"
       x1="127.7437"
       y1="211.125"
       x2="127.7436"
       y2="44.9092" />
    <linearGradient
       inkscape:collect="always"
       xlink:href="#POUETID_11_"
       id="linearGradient17601"
       gradientUnits="userSpaceOnUse"
       gradientTransform="matrix(1.881965,0,0,1.881965,-28.93882,-142.0167)"
       x1="126.2256"
       y1="55.0059"
       x2="126.2256"
       y2="283.1829" />
    <radialGradient
       inkscape:collect="always"
       xlink:href="#POUETID_12_"
       id="radialGradient17603"
       gradientUnits="userSpaceOnUse"
       gradientTransform="matrix(1.554503,-4.648454e-2,-4.648454e-2,1.38889,5.260633,-56.65603)"
       cx="100.5962"
       cy="124.4897"
       fx="100.5962"
       fy="124.4897"
       r="86.1955" />
    <linearGradient
       inkscape:collect="always"
       xlink:href="#linearGradient18594"
       id="linearGradient18633"
       gradientUnits="userSpaceOnUse"
       gradientTransform="matrix(1.22327,0,0,1.22327,-65.73658,-48.0762)"
       x1="128.0024"
       y1="39.862801"
       x2="128.0024"
       y2="216.15871" />
    <linearGradient
       inkscape:collect="always"
       xlink:href="#linearGradient18588"
       id="linearGradient18635"
       gradientUnits="userSpaceOnUse"
       gradientTransform="matrix(1.22327,0,0,1.22327,-65.73658,-48.0762)"
       x1="127.7437"
       y1="211.125"
       x2="127.7436"
       y2="44.909199" />
    <linearGradient
       inkscape:collect="always"
       xlink:href="#linearGradient18507"
       id="linearGradient18637"
       gradientUnits="userSpaceOnUse"
       gradientTransform="matrix(1.22327,0,0,1.22327,-65.73658,-48.0762)"
       x1="126.2256"
       y1="55.005901"
       x2="126.2256"
       y2="283.18289" />
    <radialGradient
       inkscape:collect="always"
       xlink:href="#radialGradient18501"
       id="radialGradient18639"
       gradientUnits="userSpaceOnUse"
       gradientTransform="matrix(1.010419,-3.02148e-2,-3.02148e-2,0.902771,-43.50678,7.408)"
       cx="100.5962"
       cy="124.4897"
       fx="100.5962"
       fy="124.4897"
       r="86.195503" />
    <radialGradient
       inkscape:collect="always"
       xlink:href="#POUETID_12_"
       id="radialGradient18642"
       gradientUnits="userSpaceOnUse"
       gradientTransform="matrix(1.010419,-3.02148e-2,-3.02148e-2,0.902771,-39.8189,11.39426)"
       cx="100.5962"
       cy="124.4897"
       fx="100.5962"
       fy="124.4897"
       r="86.195503" />
    <linearGradient
       inkscape:collect="always"
       xlink:href="#linearGradient18507"
       id="linearGradient18645"
       gradientUnits="userSpaceOnUse"
       gradientTransform="matrix(1.22327,0,0,1.22327,-62.0487,-44.08994)"
       x1="126.2256"
       y1="55.005901"
       x2="126.2256"
       y2="283.18289" />
    <linearGradient
       inkscape:collect="always"
       xlink:href="#linearGradient18588"
       id="linearGradient18649"
       gradientUnits="userSpaceOnUse"
       gradientTransform="matrix(1.22327,0,0,1.22327,-62.0487,-44.08994)"
       x1="127.7437"
       y1="211.125"
       x2="127.7436"
       y2="44.909199" />
    <linearGradient
       inkscape:collect="always"
       xlink:href="#linearGradient18594"
       id="linearGradient18652"
       gradientUnits="userSpaceOnUse"
       gradientTransform="matrix(1.22327,0,0,1.22327,-62.0487,-44.08994)"
       x1="128.0024"
       y1="39.862801"
       x2="128.0024"
       y2="216.15871" />
    <linearGradient
       inkscape:collect="always"
       xlink:href="#POUETID_9_"
       id="linearGradient20410"
       gradientUnits="userSpaceOnUse"
       gradientTransform="matrix(1.881965,0,0,1.881965,-28.93882,-142.0167)"
       x1="128.0024"
       y1="39.8628"
       x2="128.0024"
       y2="216.1587" />
    <linearGradient
       inkscape:collect="always"
       xlink:href="#POUETID_10_"
       id="linearGradient20412"
       gradientUnits="userSpaceOnUse"
       gradientTransform="matrix(1.881965,0,0,1.881965,-28.93882,-142.0167)"
       x1="127.7437"
       y1="211.125"
       x2="127.7436"
       y2="44.9092" />
    <linearGradient
       inkscape:collect="always"
       xlink:href="#POUETID_11_"
       id="linearGradient20414"
       gradientUnits="userSpaceOnUse"
       gradientTransform="matrix(1.881965,0,0,1.881965,-28.93882,-142.0167)"
       x1="126.2256"
       y1="55.0059"
       x2="126.2256"
       y2="283.1829" />
    <radialGradient
       inkscape:collect="always"
       xlink:href="#POUETID_12_"
       id="radialGradient20416"
       gradientUnits="userSpaceOnUse"
       gradientTransform="matrix(1.554503,-4.648454e-2,-4.648454e-2,1.38889,5.260633,-56.65603)"
       cx="100.5962"
       cy="124.4897"
       fx="100.5962"
       fy="124.4897"
       r="86.1955" />
    <radialGradient
       inkscape:collect="always"
       xlink:href="#POUETID_12_"
       id="radialGradient20419"
       gradientUnits="userSpaceOnUse"
       gradientTransform="matrix(1.010419,-3.021472e-2,-3.021472e-2,0.902772,4.981106,24.19485)"
       cx="100.5962"
       cy="124.4897"
       fx="100.5962"
       fy="124.4897"
       r="86.1955" />
    <linearGradient
       inkscape:collect="always"
       xlink:href="#POUETID_11_"
       id="linearGradient20422"
       gradientUnits="userSpaceOnUse"
       gradientTransform="matrix(1.223268,0,0,1.223268,-17.24837,-31.28915)"
       x1="126.2256"
       y1="55.0059"
       x2="126.2256"
       y2="283.1829" />
    <linearGradient
       inkscape:collect="always"
       xlink:href="#POUETID_10_"
       id="linearGradient20426"
       gradientUnits="userSpaceOnUse"
       gradientTransform="matrix(1.223268,0,0,1.223268,-17.24837,-31.28915)"
       x1="127.7437"
       y1="211.125"
       x2="127.7436"
       y2="44.9092" />
    <linearGradient
       inkscape:collect="always"
       xlink:href="#POUETID_9_"
       id="linearGradient20429"
       gradientUnits="userSpaceOnUse"
       gradientTransform="matrix(1.223268,0,0,1.223268,-17.24837,-31.28915)"
       x1="128.0024"
       y1="39.8628"
       x2="128.0024"
       y2="216.1587" />
    <radialGradient
       inkscape:collect="always"
       xlink:href="#radialGradient18501"
       id="radialGradient21307"
       gradientUnits="userSpaceOnUse"
       gradientTransform="matrix(1.010419,-3.02148e-2,-3.02148e-2,0.902771,43.38106,36.9944)"
       cx="100.5962"
       cy="124.4897"
       fx="100.5962"
       fy="124.4897"
       r="86.195503" />
    <linearGradient
       inkscape:collect="always"
       xlink:href="#linearGradient15766"
       id="linearGradient21310"
       gradientUnits="userSpaceOnUse"
       gradientTransform="matrix(1.22327,0,0,1.22327,21.1513,-18.48976)"
       x1="126.2256"
       y1="55.005901"
       x2="126.2256"
       y2="283.18289" />
    <linearGradient
       inkscape:collect="always"
       xlink:href="#linearGradient16657"
       id="linearGradient21314"
       gradientUnits="userSpaceOnUse"
       gradientTransform="matrix(1.22327,0,0,1.22327,21.1513,-18.48976)"
       x1="127.7437"
       y1="211.125"
       x2="127.7436"
       y2="44.909199" />
    <linearGradient
       inkscape:collect="always"
       xlink:href="#linearGradient17536"
       id="linearGradient21317"
       gradientUnits="userSpaceOnUse"
       gradientTransform="matrix(1.22327,0,0,1.22327,21.1513,-18.48976)"
       x1="128.0024"
       y1="39.862801"
       x2="128.0024"
       y2="216.15871" />
    <linearGradient
       inkscape:collect="always"
       xlink:href="#linearGradient17536"
       id="linearGradient21330"
       gradientUnits="userSpaceOnUse"
       gradientTransform="matrix(1.22327,0,0,1.22327,21.1513,-18.48976)"
       x1="128.0024"
       y1="39.862801"
       x2="128.0024"
       y2="216.15871" />
    <linearGradient
       inkscape:collect="always"
       xlink:href="#linearGradient16657"
       id="linearGradient21332"
       gradientUnits="userSpaceOnUse"
       gradientTransform="matrix(1.22327,0,0,1.22327,21.1513,-18.48976)"
       x1="127.7437"
       y1="211.125"
       x2="127.7436"
       y2="44.909199" />
    <linearGradient
       inkscape:collect="always"
       xlink:href="#linearGradient15766"
       id="linearGradient21334"
       gradientUnits="userSpaceOnUse"
       gradientTransform="matrix(1.22327,0,0,1.22327,21.1513,-18.48976)"
       x1="126.2256"
       y1="55.005901"
       x2="126.2256"
       y2="283.18289" />
    <radialGradient
       inkscape:collect="always"
       xlink:href="#radialGradient18501"
       id="radialGradient21336"
       gradientUnits="userSpaceOnUse"
       gradientTransform="matrix(1.010419,-3.02148e-2,-3.02148e-2,0.902771,43.38106,36.9944)"
       cx="100.5962"
       cy="124.4897"
       fx="100.5962"
       fy="124.4897"
       r="86.195503" />
  </defs>
  <g
     id="g21347">
    <path
       d="M 70.23476,8.907093 C 68.04628,9.908953 66.63341,12.109593 66.63341,14.514583 L 66.84384,16.108503 C 66.84384,16.108503 101.41101,145.11836 102.49364,149.15637 C 97.58464,147.69333 92.36372,146.74037 86.89812,146.3844 C 76.45997,145.70671 66.62484,147.24316 59.91642,150.59861 C 59.97024,150.57288 60.04122,150.535 60.09626,150.51176 C 46.78708,155.97487 35.72628,167.47848 31.917,179.82133 C 30.97261,182.88194 30.49312,185.95112 30.49312,188.94082 C 30.49312,194.07612 31.93658,198.95938 34.6681,203.06472 C 40.45172,212.59151 50.31988,219.47612 62.43149,222.40828 C 74.10029,225.23407 87.39476,224.27496 99.86605,219.70972 C 99.94797,219.67797 100.04461,219.64124 100.04461,219.64124 C 115.70125,213.11996 126.15047,204.18645 130.34016,193.77884 C 131.68455,190.43567 132.36589,186.98479 132.36589,183.5254 C 132.36589,179.78216 131.55488,175.95087 129.96583,172.13429 C 129.94138,172.04501 105.09063,79.303893 103.90285,74.870743 C 106.64295,75.966803 110.90119,77.668373 110.90119,77.668373 C 119.81268,81.100883 129.91322,84.992083 138.38196,90.978773 C 147.67879,97.551443 153.51751,105.67394 156.23316,115.81122 C 157.05517,118.87669 160.03629,120.80828 163.17031,120.30549 C 166.30432,119.80271 168.53191,117.03324 168.35085,113.86376 C 166.3753,79.291673 145.34727,65.626523 123.08615,51.158873 C 107.30228,40.896853 90.98996,30.293523 77.90586,11.046613 C 76.20672,8.549913 72.981,7.649563 70.23476,8.907093 z "
       id="path18610"
       style="font-size:12px;opacity:0.2" />
    <path
       d="M 67.78816,7.683803 C 65.59975,8.685653 64.18688,10.886363 64.18688,13.291283 L 64.39725,14.885203 C 64.39725,14.885203 98.96448,143.89506 100.04704,147.93308 C 95.13812,146.47004 89.91719,145.51714 84.45159,145.16117 C 74.01338,144.48348 64.17831,146.01986 57.46989,149.37532 C 57.52372,149.34965 57.59469,149.3117 57.64973,149.28847 C 44.34055,154.75157 33.27968,166.25525 29.47047,178.59804 C 28.52608,181.65864 28.04653,184.72783 28.04653,187.71752 C 28.04653,192.85282 29.48999,197.73615 32.22157,201.84143 C 38.00519,211.36828 47.87335,218.25282 59.98496,221.18504 C 71.6537,224.01077 84.94823,223.05173 97.41946,218.48648 C 97.50144,218.45468 97.59808,218.41794 97.59808,218.41794 C 113.25472,211.89672 123.70394,202.96316 127.89364,192.55554 C 129.23802,189.21237 129.91936,185.76149 129.91936,182.3021 C 129.91936,178.55887 129.10836,174.72764 127.5193,170.911 C 127.49485,170.82172 102.6441,78.080603 101.45626,73.647513 C 104.19642,74.743513 108.4546,76.445083 108.4546,76.445083 C 117.36615,79.877593 127.46669,83.768853 135.93543,89.755543 C 145.23226,96.328153 151.07092,104.45071 153.78663,114.58792 C 154.60864,117.65346 157.58976,119.58498 160.72378,119.08226 C 163.8578,118.57948 166.08538,115.81 165.90432,112.64047 C 163.92877,78.068373 142.90068,64.403223 120.63962,49.936853 C 104.85575,39.674773 88.54343,29.071513 75.45933,9.824533 C 73.7602,7.326613 70.5344,6.426263 67.78816,7.683803 z "
       id="path18612"
       style="font-size:12px;opacity:0.2" />
    <path
       d="M 65.34164,5.237273 C 63.15322,6.239123 61.74036,8.439763 61.74036,10.844763 L 61.95072,12.438683 C 61.95072,12.438683 96.51796,141.44853 97.60052,145.48655 C 92.69152,144.02351 87.4706,143.07061 82.00506,142.71458 C 71.56685,142.03695 61.73178,143.57333 55.02336,146.92879 C 55.07719,146.90306 55.1481,146.86517 55.20314,146.84194 C 41.89396,152.30504 30.83316,163.80872 27.02388,176.15151 C 26.07956,179.21212 25.6,182.2813 25.6,185.271 C 25.6,190.40629 27.04346,195.28956 29.77504,199.3949 C 35.55866,208.92175 45.42676,215.80629 57.53837,218.73845 C 69.20717,221.56424 82.5017,220.6052 94.97415,216.03996 C 95.05613,216.00815 95.15156,215.97141 95.15156,215.97141 C 110.8082,209.4502 121.25735,200.51663 125.44711,190.10901 C 126.79143,186.76584 127.47284,183.31496 127.47284,179.85557 C 127.47284,176.11234 126.66176,172.28104 125.07277,168.46447 C 125.04826,168.37519 100.19751,75.634073 99.00973,71.200923 C 101.74989,72.296983 106.00807,73.998553 106.00807,73.998553 C 114.91962,77.431063 125.02016,81.322323 133.48884,87.309013 C 142.78573,93.881623 148.62439,102.00412 151.34004,112.1414 C 152.16212,115.20572 155.14324,117.13724 158.27725,116.63445 C 161.41127,116.13173 163.63885,113.3622 163.4578,110.19272 C 161.48218,75.620633 140.45415,61.955483 118.19309,47.489043 C 102.40922,37.227033 86.0969,26.623703 73.0128,7.376793 C 71.31367,4.880083 68.08788,3.979733 65.34164,5.237273 z "
       id="path18614"
       style="font-size:12px;fill:url(#linearGradient18652);fill-opacity:1" />
    <path
       d="M 89.11712,59.278933 C 103.57863,70.683483 147.06592,73.521493 156.98548,110.54748 C 153.89671,56.439763 100.52173,59.278933 67.5986,10.845973 L 106.52916,156.14248 C 92.85543,147.57468 69.25856,146.55445 57.46989,152.44815 C 38.23764,160.2013 25.10215,181.76386 34.61671,196.0052 C 44.87879,213.11144 69.2096,218.7837 92.54106,210.24776 C 113.03456,201.70933 126.32903,187.46434 118.88788,170.38626 L 89.11712,59.278933 z "
       id="path18616"
       style="font-size:12px;fill:url(#linearGradient18649);fill-opacity:1" />
    <path
       d="M 108.92922,155.49903 C 108.98554,155.71189 109.0112,155.92719 109.0112,156.1412 C 109.0112,156.91554 108.64788,157.66056 108.0057,158.1364 C 107.18484,158.74312 106.07783,158.78351 105.21415,158.24405 C 91.76922,149.81935 69.10567,149.40348 58.58061,154.66722 C 58.52192,154.69532 58.46074,154.72469 58.39956,154.74792 C 47.27885,159.23247 38.08717,168.63452 34.98004,178.70204 C 33.69197,182.8758 32.94087,189.02767 36.6816,194.62658 C 36.70484,194.6596 36.72564,194.69628 36.74644,194.7293 C 41.33984,202.38703 49.33639,207.92719 59.26445,210.3309 C 69.27322,212.75298 80.77076,211.90037 91.64199,207.93212 C 104.81536,202.43471 113.86023,194.95932 117.11047,186.87836 C 118.03162,184.59208 118.49152,182.24828 118.49152,179.86415 C 118.49152,177.08367 117.86522,174.24687 116.61383,171.37711 C 116.56615,171.26453 116.52576,171.14709 116.49274,171.02844 L 86.72077,59.921173 C 86.66452,59.707093 86.63636,59.491803 86.63636,59.278933 C 86.63636,58.458133 87.04372,57.672793 87.75322,57.206743 C 88.64621,56.618323 89.81562,56.668503 90.65479,57.330263 C 94.63168,60.466773 101.20308,62.997723 108.80813,65.927443 C 118.19188,69.543443 128.82823,73.641363 138.17274,80.247063 C 143.22855,83.821463 147.41703,87.805653 150.79328,92.242453 C 148.63296,86.578713 145.53684,81.489883 141.41812,76.776603 C 133.9904,68.274903 123.87642,61.702233 113.16909,54.743063 C 100.18528,46.304923 85.7776,36.921243 73.22932,22.268883 C 78.66554,42.558043 108.92922,155.49903 108.92922,155.49903 z "
       id="path18618"
       style="font-size:12px;fill:white" />
    <path
       d="M 108.92922,155.49903 C 108.98554,155.71189 109.0112,155.92719 109.0112,156.1412 C 109.0112,156.91554 108.64788,157.66056 108.0057,158.1364 C 107.18484,158.74312 106.07783,158.78351 105.21415,158.24405 C 91.76922,149.81935 69.10567,149.40348 58.58061,154.66722 C 58.52192,154.69532 58.46074,154.72469 58.39956,154.74792 C 47.27885,159.23247 38.08717,168.63452 34.98004,178.70204 C 33.69197,182.8758 32.94087,189.02767 36.6816,194.62658 C 36.70484,194.6596 36.72564,194.69628 36.74644,194.7293 C 41.33984,202.38703 49.33639,207.92719 59.26445,210.3309 C 69.27322,212.75298 80.77076,211.90037 91.64199,207.93212 C 104.81536,202.43471 113.86023,194.95932 117.11047,186.87836 C 118.03162,184.59208 118.49152,182.24828 118.49152,179.86415 C 118.49152,177.08367 117.86522,174.24687 116.61383,171.37711 C 116.56615,171.26453 116.52576,171.14709 116.49274,171.02844 L 86.72077,59.921173 C 86.66452,59.707093 86.63636,59.491803 86.63636,59.278933 C 86.63636,58.458133 87.04372,57.672793 87.75322,57.206743 C 88.64621,56.618323 89.81562,56.668503 90.65479,57.330263 C 94.63168,60.466773 101.20308,62.997723 108.80813,65.927443 C 118.19188,69.543443 128.82823,73.641363 138.17274,80.247063 C 143.22855,83.821463 147.41703,87.805653 150.79328,92.242453 C 148.63296,86.578713 145.53684,81.489883 141.41812,76.776603 C 133.9904,68.274903 123.87642,61.702233 113.16909,54.743063 C 100.18528,46.304923 85.7776,36.921243 73.22932,22.268883 C 78.66554,42.558043 108.92922,155.49903 108.92922,155.49903 z "
       id="path18620"
       style="font-size:12px;fill:url(#linearGradient18645);fill-opacity:1" />
    <path
       d="M 44.60352,171.85295 C 46.31488,178.40111 57.60448,181.11797 69.81639,177.92405 C 82.02829,174.73128 90.53978,166.83388 88.8272,160.28444 C 87.11463,153.73628 75.82509,151.01941 63.6144,154.21212 C 51.40122,157.40732 42.88973,165.30472 44.60352,171.85295 z "
       id="path18622"
       style="font-size:12px;fill:url(#radialGradient18642);fill-opacity:1.0" />
  </g>
  <g
     id="g21338">
    <path
       d="M 115.0346,21.707678 C 112.84617,22.709535 111.43329,24.910197 111.43329,27.31514 L 111.6437,28.909058 C 111.6437,28.909058 146.2108,157.91856 147.29339,161.95656 C 142.38442,160.49353 137.16351,159.54061 131.69795,159.18464 C 121.2598,158.50695 111.42473,160.04337 104.71633,163.3988 C 104.77016,163.37311 104.8411,163.33519 104.89615,163.31194 C 91.586997,168.77506 80.526214,180.27867 76.716957,192.62144 C 75.772593,195.68206 75.293072,198.75124 75.293072,201.7409 C 75.293072,206.87618 76.736529,211.75947 79.468087,215.86476 C 85.251691,225.39156 95.119791,232.27612 107.23137,235.20829 C 118.90012,238.03404 132.1946,237.075 144.66581,232.50976 C 144.74777,232.47796 144.84441,232.44126 144.84441,232.44126 C 160.50101,225.92002 170.95017,216.98649 175.13986,206.57893 C 176.48423,203.23574 177.16559,199.7849 177.16559,196.3255 C 177.16559,192.5823 176.35457,188.75103 174.76554,184.93442 C 174.74107,184.84513 149.89039,92.104301 148.7026,87.67118 C 151.44272,88.767227 155.70091,90.468791 155.70091,90.468791 C 164.61241,93.901278 174.71294,97.792492 183.18162,103.77917 C 192.47846,110.35179 198.31712,118.47429 201.03277,128.61151 C 201.85481,131.67701 204.83591,133.60856 207.96992,133.10579 C 211.10394,132.60303 213.3315,129.83355 213.15046,126.66406 C 211.17488,92.092069 190.14691,78.426944 167.88588,63.959355 C 152.10206,53.697358 135.78978,43.094074 122.70571,23.847176 C 121.00659,21.350487 117.78083,20.450159 115.0346,21.707678 z "
       id="path11239"
       style="font-size:12px;opacity:0.2" />
    <path
       d="M 112.58806,20.484414 C 110.39963,21.486271 108.98676,23.686926 108.98676,26.091875 L 109.19716,27.685793 C 109.19716,27.685793 143.76427,156.69529 144.84685,160.7333 C 139.93788,159.27027 134.71697,158.31734 129.25141,157.96137 C 118.81327,157.28368 108.9782,158.82011 102.26979,162.17553 C 102.32362,162.14984 102.39457,162.11192 102.44962,162.08868 C 89.140461,167.55179 78.079678,179.0554 74.270422,191.39818 C 73.326057,194.45879 72.846536,197.52797 72.846536,200.51764 C 72.846536,205.65292 74.289993,210.5362 77.021552,214.64148 C 82.805155,224.1683 92.673256,231.05285 104.78483,233.98502 C 116.45358,236.81077 129.74806,235.85173 142.21927,231.28649 C 142.30123,231.25469 142.39787,231.21799 142.39787,231.21799 C 158.05448,224.69675 168.50364,215.76323 172.69333,205.35566 C 174.03769,202.01247 174.71906,198.56163 174.71906,195.10223 C 174.71906,191.35903 173.90803,187.52776 172.319,183.71116 C 172.29454,183.62186 147.44386,90.88103 146.25606,86.447908 C 148.99618,87.543956 153.25438,89.245519 153.25438,89.245519 C 162.16588,92.678013 172.2664,96.569228 180.73509,102.5559 C 190.03192,109.12852 195.87058,117.25102 198.58624,127.38824 C 199.40827,130.45375 202.38938,132.38529 205.52339,131.88252 C 208.6574,131.37976 210.88497,128.61028 210.70392,125.4408 C 208.72835,90.868797 187.70037,77.203673 165.43934,62.737306 C 149.65552,52.475315 133.34325,41.872031 120.25917,22.625133 C 118.56005,20.127222 115.3343,19.226895 112.58806,20.484414 z "
       id="path11241"
       style="font-size:12px;opacity:0.2" />
    <path
       d="M 110.14153,18.037878 C 107.9531,19.039735 106.54022,21.240391 106.54022,23.64534 L 106.75063,25.239257 C 106.75063,25.239257 141.31773,154.24875 142.40032,158.28676 C 137.49135,156.82373 132.27044,155.87081 126.80488,155.51484 C 116.36673,154.83715 106.53166,156.37357 99.823259,159.729 C 99.877085,159.7033 99.948032,159.66538 100.00308,159.64214 C 86.693926,165.10525 75.633143,176.60887 71.823886,188.95164 C 70.879521,192.01225 70.4,195.08143 70.4,198.0711 C 70.4,203.20638 71.843457,208.08966 74.575016,212.19495 C 80.358626,221.72176 90.22672,228.60631 102.3383,231.53849 C 114.00705,234.36424 127.30152,233.4052 139.77397,228.83996 C 139.85592,228.80815 139.95134,228.77145 139.95134,228.77145 C 155.60794,222.25022 166.0571,213.31669 170.24679,202.90913 C 171.59116,199.56594 172.27252,196.11509 172.27252,192.6557 C 172.27252,188.91249 171.4615,185.08122 169.87247,181.26462 C 169.848,181.17533 144.99732,88.434495 143.80953,84.001373 C 146.54964,85.09742 150.80784,86.798984 150.80784,86.798984 C 159.71934,90.231477 169.81987,94.122692 178.28855,100.10937 C 187.58539,106.68198 193.42405,114.80448 196.1397,124.9417 C 196.96174,128.00599 199.94284,129.93753 203.07685,129.43476 C 206.21087,128.93201 208.43843,126.16253 208.25739,122.99304 C 206.28181,88.42104 185.25384,74.755915 162.99281,60.289548 C 147.20899,50.027558 130.89671,39.424267 117.81264,20.177376 C 116.11352,17.680686 112.88776,16.780359 110.14153,18.037878 z "
       id="path11243"
       style="font-size:12px;fill:url(#linearGradient20429)" />
    <path
       d="M 133.91696,72.079405 C 148.37843,83.483931 191.8656,86.321913 201.78508,123.34778 C 198.69633,69.240201 145.32149,72.079405 112.39845,23.646562 L 151.32895,168.94265 C 137.65526,160.37488 114.05843,159.35467 102.26979,165.24838 C 83.03758,173.00145 69.90213,194.56399 79.416705,208.80528 C 89.678696,225.91146 114.0095,231.58375 137.34089,223.04779 C 157.83429,214.50937 171.12876,200.26442 163.68763,183.18638 L 133.91696,72.079405 z "
       id="path11245"
       style="font-size:12px;fill:url(#linearGradient20426)" />
    <path
       d="M 153.729,168.29921 C 153.78527,168.51205 153.81096,168.72735 153.81096,168.94142 C 153.81096,169.71575 153.44765,170.46072 152.80544,170.93657 C 151.98462,171.54331 150.87756,171.58368 150.01394,171.04422 C 136.569,162.61958 113.90552,162.20366 103.38052,167.46739 C 103.32181,167.49552 103.26064,167.52488 103.19948,167.54812 C 92.078751,172.03262 82.887113,181.43466 79.78002,191.50215 C 78.491918,195.67594 77.74083,201.82776 81.481583,207.42666 C 81.504821,207.45968 81.52562,207.49638 81.546414,207.52941 C 86.139785,215.18706 94.13629,220.72724 104.06433,223.13096 C 114.07311,225.55303 125.5706,224.70042 136.44178,220.73214 C 149.61515,215.23477 158.65999,207.75938 161.91022,199.67848 C 162.83134,197.39219 163.29129,195.04841 163.29129,192.66426 C 163.29129,189.88377 162.66498,187.04701 161.41357,184.17723 C 161.36586,184.06469 161.32549,183.94725 161.29247,183.82859 L 131.52058,72.72162 C 131.46431,72.50755 131.43617,72.292252 131.43617,72.079405 C 131.43617,71.258591 131.84352,70.473254 132.55302,70.007188 C 133.446,69.4188 134.61544,69.468954 135.45461,70.130739 C 139.43145,73.267199 146.00284,75.798137 153.6079,78.727866 C 162.99159,82.343847 173.6279,86.441792 182.97245,93.047438 C 188.02821,96.621825 192.21668,100.60601 195.5929,105.0428 C 193.43261,99.379071 190.33652,94.29028 186.21777,89.57703 C 178.79009,81.075316 168.67611,74.502697 157.96885,67.543525 C 144.98509,59.105427 130.57743,49.721741 118.02916,35.069437 C 123.46536,55.358556 153.729,168.29921 153.729,168.29921 z "
       id="path11247"
       style="font-size:12px;fill:white" />
    <path
       d="M 153.729,168.29921 C 153.78527,168.51205 153.81096,168.72735 153.81096,168.94142 C 153.81096,169.71575 153.44765,170.46072 152.80544,170.93657 C 151.98462,171.54331 150.87756,171.58368 150.01394,171.04422 C 136.569,162.61958 113.90552,162.20366 103.38052,167.46739 C 103.32181,167.49552 103.26064,167.52488 103.19948,167.54812 C 92.078751,172.03262 82.887113,181.43466 79.78002,191.50215 C 78.491918,195.67594 77.74083,201.82776 81.481583,207.42666 C 81.504821,207.45968 81.52562,207.49638 81.546414,207.52941 C 86.139785,215.18706 94.13629,220.72724 104.06433,223.13096 C 114.07311,225.55303 125.5706,224.70042 136.44178,220.73214 C 149.61515,215.23477 158.65999,207.75938 161.91022,199.67848 C 162.83134,197.39219 163.29129,195.04841 163.29129,192.66426 C 163.29129,189.88377 162.66498,187.04701 161.41357,184.17723 C 161.36586,184.06469 161.32549,183.94725 161.29247,183.82859 L 131.52058,72.72162 C 131.46431,72.50755 131.43617,72.292252 131.43617,72.079405 C 131.43617,71.258591 131.84352,70.473254 132.55302,70.007188 C 133.446,69.4188 134.61544,69.468954 135.45461,70.130739 C 139.43145,73.267199 146.00284,75.798137 153.6079,78.727866 C 162.99159,82.343847 173.6279,86.441792 182.97245,93.047438 C 188.02821,96.621825 192.21668,100.60601 195.5929,105.0428 C 193.43261,99.379071 190.33652,94.29028 186.21777,89.57703 C 178.79009,81.075316 168.67611,74.502697 157.96885,67.543525 C 144.98509,59.105427 130.57743,49.721741 118.02916,35.069437 C 123.46536,55.358556 153.729,168.29921 153.729,168.29921 z "
       id="path11249"
       style="font-size:12px;fill:url(#linearGradient20422)" />
    <path
       d="M 89.403462,184.65307 C 91.114815,191.20123 102.40436,193.91811 114.61624,190.72416 C 126.82812,187.53143 135.33962,179.63401 133.62704,173.08463 C 131.91447,166.53648 120.62493,163.8196 108.41427,167.01233 C 96.201162,170.20751 87.689666,178.10492 89.403462,184.65307 z "
       id="path11251"
       style="font-size:12px;fill:url(#radialGradient20419)" />
  </g>
  <g
     id="g21321"
     transform="translate(6.4,-1.366819e-4)">
    <path
       d="M 153.43476,34.507232 C 151.24628,35.509088 149.83341,37.709728 149.83341,40.11472 L 150.04384,41.70864 C 150.04384,41.70864 184.61101,170.7185 185.69364,174.75651 C 180.78464,173.29347 175.56372,172.34051 170.09812,171.98454 C 159.65997,171.30685 149.82484,172.8433 143.11642,176.19875 C 143.17024,176.17302 143.24122,176.13514 143.29626,176.1119 C 129.98708,181.57501 118.92628,193.07862 115.117,205.42147 C 114.17261,208.48208 113.69312,211.55126 113.69312,214.54096 C 113.69312,219.67626 115.13658,224.55952 117.8681,228.66486 C 123.65172,238.19165 133.51988,245.07626 145.63149,248.00842 C 157.30029,250.83421 170.59476,249.8751 183.06605,245.30986 C 183.14797,245.27811 183.24461,245.24138 183.24461,245.24138 C 198.90125,238.7201 209.35047,229.78659 213.54016,219.37898 C 214.88455,216.03581 215.56589,212.58493 215.56589,209.12554 C 215.56589,205.3823 214.75488,201.55101 213.16583,197.73443 C 213.14138,197.64515 188.29063,104.90403 187.10285,100.47088 C 189.84295,101.56694 194.10119,103.26851 194.10119,103.26851 C 203.01268,106.70102 213.11322,110.59222 221.58196,116.57891 C 230.87879,123.15158 236.71751,131.27408 239.43316,141.41136 C 240.25517,144.47683 243.23629,146.40842 246.37031,145.90563 C 249.50432,145.40285 251.73191,142.63338 251.55085,139.4639 C 249.5753,104.89181 228.54727,91.226656 206.28615,76.759008 C 190.50228,66.496992 174.18996,55.893664 161.10586,36.646752 C 159.40672,34.150048 156.181,33.249696 153.43476,34.507232 z "
       id="path17574"
       style="font-size:12px;opacity:0.2" />
    <path
       d="M 150.98816,33.283936 C 148.79975,34.285792 147.38688,36.486496 147.38688,38.891424 L 147.59725,40.485344 C 147.59725,40.485344 182.16448,169.4952 183.24704,173.53322 C 178.33812,172.07018 173.11719,171.11728 167.65159,170.76131 C 157.21338,170.08362 147.37831,171.62 140.66989,174.97546 C 140.72372,174.94979 140.79469,174.91184 140.84973,174.88861 C 127.54055,180.35171 116.47968,191.85539 112.67047,204.19818 C 111.72608,207.25878 111.24653,210.32797 111.24653,213.31766 C 111.24653,218.45296 112.68999,223.33629 115.42157,227.44157 C 121.20519,236.96842 131.07335,243.85296 143.18496,246.78518 C 154.8537,249.61091 168.14823,248.65187 180.61946,244.08662 C 180.70144,244.05482 180.79808,244.01808 180.79808,244.01808 C 196.45472,237.49686 206.90394,228.5633 211.09364,218.15568 C 212.43802,214.81251 213.11936,211.36163 213.11936,207.90224 C 213.11936,204.15901 212.30836,200.32778 210.7193,196.51114 C 210.69485,196.42186 185.8441,103.68074 184.65626,99.247648 C 187.39642,100.34365 191.6546,102.04522 191.6546,102.04522 C 200.56615,105.47773 210.66669,109.36899 219.13543,115.35568 C 228.43226,121.92829 234.27092,130.05085 236.98663,140.18806 C 237.80864,143.2536 240.78976,145.18512 243.92378,144.6824 C 247.0578,144.17962 249.28538,141.41014 249.10432,138.24061 C 247.12877,103.66851 226.10068,90.00336 203.83962,75.536992 C 188.05575,65.274912 171.74343,54.671648 158.65933,35.424672 C 156.9602,32.926752 153.7344,32.0264 150.98816,33.283936 z "
       id="path17576"
       style="font-size:12px;opacity:0.2" />
    <path
       d="M 148.54164,30.837408 C 146.35322,31.839264 144.94036,34.039904 144.94036,36.444896 L 145.15072,38.038816 C 145.15072,38.038816 179.71796,167.04867 180.80052,171.08669 C 175.89152,169.62365 170.6706,168.67075 165.20506,168.31472 C 154.76685,167.63709 144.93178,169.17347 138.22336,172.52893 C 138.27719,172.5032 138.3481,172.46531 138.40314,172.44208 C 125.09396,177.90518 114.03316,189.40886 110.22388,201.75165 C 109.27956,204.81226 108.8,207.88144 108.8,210.87114 C 108.8,216.00643 110.24346,220.8897 112.97504,224.99504 C 118.75866,234.52189 128.62676,241.40643 140.73837,244.33859 C 152.40717,247.16438 165.7017,246.20534 178.17415,241.6401 C 178.25613,241.60829 178.35156,241.57155 178.35156,241.57155 C 194.0082,235.05034 204.45735,226.11677 208.64711,215.70915 C 209.99143,212.36598 210.67284,208.9151 210.67284,205.45571 C 210.67284,201.71248 209.86176,197.88118 208.27277,194.06461 C 208.24826,193.97533 183.39751,101.23421 182.20973,96.801056 C 184.94989,97.89712 189.20807,99.598688 189.20807,99.598688 C 198.11962,103.0312 208.22016,106.92246 216.68884,112.90915 C 225.98573,119.48176 231.82439,127.60426 234.54004,137.74154 C 235.36212,140.80586 238.34324,142.73738 241.47725,142.23459 C 244.61127,141.73187 246.83885,138.96234 246.6578,135.79286 C 244.68218,101.22077 223.65415,87.555616 201.39309,73.089184 C 185.60922,62.827168 169.2969,52.22384 156.2128,32.976928 C 154.51367,30.480224 151.28788,29.579872 148.54164,30.837408 z "
       id="path17578"
       style="font-size:12px;fill:url(#linearGradient21330);fill-opacity:1" />
    <path
       d="M 172.31712,84.879072 C 186.77863,96.283616 230.26592,99.121632 240.18548,136.14762 C 237.09671,82.039904 183.72173,84.879072 150.7986,36.446112 L 189.72916,181.74262 C 176.05543,173.17482 152.45856,172.15459 140.66989,178.04829 C 121.43764,185.80144 108.30215,207.364 117.81671,221.60534 C 128.07879,238.71158 152.4096,244.38384 175.74106,235.8479 C 196.23456,227.30947 209.52903,213.06448 202.08788,195.9864 L 172.31712,84.879072 z "
       id="path17580"
       style="font-size:12px;fill:url(#linearGradient21332);fill-opacity:1" />
    <path
       d="M 192.12922,181.09917 C 192.18554,181.31203 192.2112,181.52733 192.2112,181.74134 C 192.2112,182.51568 191.84788,183.2607 191.2057,183.73654 C 190.38484,184.34326 189.27783,184.38365 188.41415,183.84419 C 174.96922,175.41949 152.30567,175.00362 141.78061,180.26736 C 141.72192,180.29546 141.66074,180.32483 141.59956,180.34806 C 130.47885,184.83261 121.28717,194.23466 118.18004,204.30218 C 116.89197,208.47594 116.14087,214.62781 119.8816,220.22672 C 119.90484,220.25974 119.92564,220.29642 119.94644,220.32944 C 124.53984,227.98717 132.53639,233.52733 142.46445,235.93104 C 152.47322,238.35312 163.97076,237.50051 174.84199,233.53226 C 188.01536,228.03485 197.06023,220.55946 200.31047,212.4785 C 201.23162,210.19222 201.69152,207.84842 201.69152,205.46429 C 201.69152,202.68381 201.06522,199.84701 199.81383,196.97725 C 199.76615,196.86467 199.72576,196.74723 199.69274,196.62858 L 169.92077,85.521312 C 169.86452,85.307232 169.83636,85.091936 169.83636,84.879072 C 169.83636,84.058272 170.24372,83.272928 170.95322,82.80688 C 171.84621,82.218464 173.01562,82.26864 173.85479,82.9304 C 177.83168,86.066912 184.40308,88.597856 192.00813,91.527584 C 201.39188,95.143584 212.02823,99.241504 221.37274,105.8472 C 226.42855,109.4216 230.61703,113.40579 233.99328,117.84259 C 231.83296,112.17885 228.73684,107.09002 224.61812,102.37674 C 217.1904,93.87504 207.07642,87.302368 196.36909,80.3432 C 183.38528,71.905056 168.9776,62.521376 156.42932,47.869024 C 161.86554,68.158176 192.12922,181.09917 192.12922,181.09917 z "
       id="path17582"
       style="font-size:12px;fill:white" />
    <path
       d="M 192.12922,181.09917 C 192.18554,181.31203 192.2112,181.52733 192.2112,181.74134 C 192.2112,182.51568 191.84788,183.2607 191.2057,183.73654 C 190.38484,184.34326 189.27783,184.38365 188.41415,183.84419 C 174.96922,175.41949 152.30567,175.00362 141.78061,180.26736 C 141.72192,180.29546 141.66074,180.32483 141.59956,180.34806 C 130.47885,184.83261 121.28717,194.23466 118.18004,204.30218 C 116.89197,208.47594 116.14087,214.62781 119.8816,220.22672 C 119.90484,220.25974 119.92564,220.29642 119.94644,220.32944 C 124.53984,227.98717 132.53639,233.52733 142.46445,235.93104 C 152.47322,238.35312 163.97076,237.50051 174.84199,233.53226 C 188.01536,228.03485 197.06023,220.55946 200.31047,212.4785 C 201.23162,210.19222 201.69152,207.84842 201.69152,205.46429 C 201.69152,202.68381 201.06522,199.84701 199.81383,196.97725 C 199.76615,196.86467 199.72576,196.74723 199.69274,196.62858 L 169.92077,85.521312 C 169.86452,85.307232 169.83636,85.091936 169.83636,84.879072 C 169.83636,84.058272 170.24372,83.272928 170.95322,82.80688 C 171.84621,82.218464 173.01562,82.26864 173.85479,82.9304 C 177.83168,86.066912 184.40308,88.597856 192.00813,91.527584 C 201.39188,95.143584 212.02823,99.241504 221.37274,105.8472 C 226.42855,109.4216 230.61703,113.40579 233.99328,117.84259 C 231.83296,112.17885 228.73684,107.09002 224.61812,102.37674 C 217.1904,93.87504 207.07642,87.302368 196.36909,80.3432 C 183.38528,71.905056 168.9776,62.521376 156.42932,47.869024 C 161.86554,68.158176 192.12922,181.09917 192.12922,181.09917 z "
       id="path17584"
       style="font-size:12px;fill:url(#linearGradient21334);fill-opacity:1" />
    <path
       d="M 127.80352,197.45309 C 129.51488,204.00125 140.80448,206.71811 153.01639,203.52419 C 165.22829,200.33142 173.73978,192.43402 172.0272,185.88458 C 170.31463,179.33642 159.02509,176.61955 146.8144,179.81226 C 134.60122,183.00746 126.08973,190.90486 127.80352,197.45309 z "
       id="path17586"
       style="font-size:12px;fill:url(#radialGradient21336);fill-opacity:1" />
  </g>
</svg>
