<?xml version="1.0" encoding="UTF-8" standalone="no"?>
<!-- Created with Inkscape (http://www.inkscape.org/) -->
<svg
   xmlns:svg="http://www.w3.org/2000/svg"
   xmlns="http://www.w3.org/2000/svg"
   version="1.0"
   width="500"
   height="500"
   viewBox="0 0 286.51758 300.31641"
   id="svg5634"
   xml:space="preserve"><defs
   id="defs5645" />
	
		<g
   id="Ebene_1">
		</g>
		<g
   transform="matrix(0.8738449,0,0,0.8738449,18.072831,18.943228)"
   id="Ebene_2">
			<path
   d="M 41.033691,9.1616211 L 60.586426,34.762695 C 23.724609,63.394043 0,108.13672 0,158.42578 C 0,221.24023 37.012207,275.40137 90.413086,300.31592 C 96.984863,285.57178 105.53564,266.39062 113.70996,248.06641 C 72.289551,231.62988 43,191.19922 43,143.92578 C 43,110.79297 57.391602,81.025391 80.258789,60.519531 L 98.132324,83.921387 L 130.51807,0 L 41.033691,9.1616211 z "
   style="fill:#949494"
   id="path5640" />
			<path
   d="M 245.48389,291.15479 L 225.93115,265.55371 C 262.79297,236.92236 286.51758,192.17969 286.51758,141.89063 C 286.51758,79.076172 249.50537,24.915039 196.10449,0.0004884 C 189.53271,14.744629 180.98193,33.925781 172.80762,52.25 C 214.22803,68.686523 243.51758,109.11719 243.51758,156.39063 C 243.51758,189.52344 229.12598,219.29102 206.25879,239.79688 L 188.38525,216.39502 L 155.99951,300.31641 L 245.48389,291.15479 z "
   style="fill:#949494"
   id="path5642" />
		</g>
	</svg>